<?xml version="1.0" encoding="UTF-8"?><svg id="Camada_1" xmlns="http://www.w3.org/2000/svg" viewBox="0 0 820.63 643.22"><defs><style>.cls-1{fill:#8fc014;}.cls-2{fill:#f7fcf9;}.cls-3{fill:#fcfbf8;}.cls-4{fill:#40444b;opacity:.2;}.cls-5{fill:#faba98;}.cls-6{fill:#f9ba98;}.cls-7{fill:#212631;}.cls-8{fill:#4a4d48;}.cls-9{fill:#faba97;}.cls-10{fill:#dc9b7a;}.cls-11{fill:#d08d69;}.cls-12{fill:#804b28;}.cls-13{fill:#bdf317;}.cls-14{fill:#23bb5b;}</style></defs><path class="cls-4" d="M123.95,381.18c1.28-3.12.38-9.08,0-12.49-10.68-93.81-3.9-190.51,53.19-268.82C236.46,18.49,347.61-22,444.47,12.17c59.28,20.91,95.92,69.28,118.48,126.02-14.19,27.99-16.57,69-8.51,99.01,21.44,79.78,115.96,122.48,190.51,85.99,33.82,20.73,56.58,51.66,47.7,93.2s-43.83,61.84-78.49,78.51c-42.26,20.33-89.44,36.13-135.21,46.29,14.82-28.49,5.04-65.8,2-96,1.33-.82,6.95-5.36,6.98-6.43-14.77-42.47-26.35-87.77-63.52-116.53-17.03-13.17-61.33-34.04-82.46-35.04-2.74-2.03-6.73-2.06-10-2,4.72-19.17,8.07-38.83,13-58,27.72-12.36,46.62-39.69,53.76-68.74,1.09-4.45.19-10.79,2.81-15.19s13.44-9.73,18.35-11.15c2.04-2.89-8.39-13.54-10.89-15.44-3.6-2.74-6.94-3.65-11.08-5.04-.92-6.2,12.78-19.34,16.98-24.08-2.44-5.23-10.29-8.4-15.68-9.1-3.85-.5-11.47,1.06-13.21.26-2.32-1.06-14.11-12.83-18.3-15.76-34.9-24.35-77.07-30.97-118.18-19.71-16.51,4.52-31.24,11.88-49.03,13-8.33.52-11.01-4.64-8.27,8.2,1.35,6.34,5.89,14.94,10.72,19.28,2.19,1.97,10.39,5.3,10.01,6.96-.74,3.28-16.95,14.21-20.67,16.34-1.91,1.09-11.85,4.29-11.32,6.66.92,4.1,30.39,16.13,36,16.51-11.19,29.2-22.88,83.11-5.41,110.91,11.7,18.63,34.19,17.36,53.47,20.53,1.06.7.99,1.84.93,2.95-.17,3.07-2.41,9.28-2.99,13.6-5.09.56-11.48-1.26-16,1-32.02-.12-80.79,14.52-107.92,31.58-14.89,9.37-54.16,41.55-64.02,55.22-6.7,9.29.53,12.22.94,22.2l-17.94,29.38-2.05.62c-.12-1.18-.65-2.17-1.46-3.01-10.57-11.03-20.89-22.16-30.56-33.98Z"/><path class="cls-14" d="M744.95,323.18c-74.54,36.49-169.07-6.22-190.51-85.99-8.06-30-5.68-71.01,8.51-99.01,42.65-84.13,161.4-99.69,224.03-28.53,58.85,66.88,37.8,174.45-42.03,213.53ZM662.79,226l-3.39-.77-41.92-38.08c-14.98-7.92-29.04,10.39-18.04,23.04,17.36,13.41,34.83,36.54,52.58,48.42,6.53,4.37,15.36,3.65,20.94-1.92l97.5-93.5c11.78-14.18-6-32.55-20.42-21.42l-87.24,84.23Z"/><path class="cls-6" d="M580.95,445.18c3.04,30.2,12.82,67.51-2,96-7.42,14.25-20.79,20.95-36.46,22.04-40.21,2.79-124.85-14.03-130.53,44.47-.75,7.69,4.77,42.29-10.38,34.36-11.18-5.85-12.18-31.97-15.64-42.87h-2.97c-2.55,8.69-3.88,17.52-5.01,26.51-.56,4.44,1.17,12.17-4.25,14.77-10.42,4.99-14.43-16.08-14.74-22.78-.45-9.9,3.47-19.83.97-29.49-1.75-1.26-4.12,3.75-4.7,4.78-4.86,8.7-7.07,24.75-11.85,31.15s-11.23,4.03-12.38-3.51c-3-19.63,10.04-51.83,21.94-67.44.49-.64,3.37-4.28,4-5,32.39-37.13,94.67-51.67,142-52,.13,0,1.16,1.04,2.43,1.04,4.52-.03,9.06-.05,13.57-.04l-6-26.99c24.47-3.27,51.08-12.18,72-25Z"/><path class="cls-9" d="M123.95,381.18c9.67,11.82,20,22.95,30.56,33.98.81.85,1.34,1.84,1.46,3.01l2.05-.62,17.94-29.38c5.91,6.51,10.38,16.59,16.17,24.33,6.5,8.69,15.61,19.06,24.83,24.67.04.85.04,1.72,1,2-2.84,5.55-5.1,18.37-7,25-2.23-.5-2.12,1.23-2.98,2.47-4.76,6.85-9.7,15.62-15.02,21.53-34.2,37.97-70.67.74-93.98-27.52-21.97-26.64-42.37-56.13-62.02-84.48,2.58-6.72,1.01-11.21,0-18,12.99,3.45,17.33-5.27,14-17,15.51,3.85,16.92-9.6,10.22-20.73-.62-1.02-5.88-8.74-7.22-7.27.76,4.74,4.7,6.72,6.84,11.64,2.53,5.83,2.88,15.19-5.32,15.41-10.17.28-24.69-22.53-28.59-31.02-.61-.06-1.35-.16-1.95-.04-4.29-19.24,8.75-18.42,22.36-12.86,8.57,3.5,16.03,9.24,24.02,13.77,7.54-4.94,10.68-38.38,24.03-29.82,1.62,1.04,4.23,6.5,4.54,8.46,1.85,11.83-.89,28.32.07,40.93,1.77,23.1,10.13,34.58,23.99,51.51Z"/><path class="cls-5" d="M16.95,312.18l8.82.19c2.95,7.13,7.92,14.56,13.15,20.34,4.05,4.47,8.97,5.43,9.93,12.06,1.04,7.2-.13,12.26-8.41,11.45s-20.17-15.64-24.36-22.67c-1.04-1.75-.8-4.42-1.39-5.14-.42-.5-1.66-.13-1.73-.23-1.83-2.69-1.55-11.97.97-14.57,1.17-1.2,2.57-1.08,3.03-1.43Z"/><path class="cls-6" d="M11.95,330.18c.33,2.4,6.76,12.59,8.59,14.91,5.31,6.74,15.39,11.21,15.42,21.57,0,1.12-1.54,7.78-2.01,8.51-5.09,7.91-19.94-7.32-23.41-12.09-4.85-6.67-7.3-10.91-9.59-18.91,2.65-1.15.03-2.82,0-3-.09-.61.02-1.35,0-2l.98-.5-.98-.5c.93-5.38,5.44-8.72,11-8Z"/><path class="cls-10" d="M24.95,309.18c.59-.12,1.33-.02,1.95.04,3.89,8.49,18.41,31.3,28.59,31.02,8.19-.22,7.85-9.58,5.32-15.41-2.14-4.92-6.08-6.9-6.84-11.64,1.34-1.47,6.6,6.25,7.22,7.27,6.71,11.12,5.29,24.58-10.22,20.73,3.33,11.73-1.01,20.46-14,17,1.01,6.79,2.57,11.27,0,18l-3-1c.47-.73,2.01-7.39,2.01-8.51-.03-10.36-10.11-14.84-15.42-21.57-1.83-2.32-8.26-12.51-8.59-14.91-.05-.37.82-1.43,1-2,.07.1,1.32-.27,1.73.23.6.72.35,3.39,1.39,5.14,4.19,7.03,15.96,21.85,24.36,22.67s9.45-4.26,8.41-11.45c-.96-6.63-5.88-7.59-9.93-12.06-5.23-5.77-10.2-13.21-13.15-20.34l-8.82-.19c.1-.08-.45-1.78.64-2.03,1.89-.44,4.66-.43,7.36-.97Z"/><path class="cls-10" d="M.95,344.18c-.21-.74-2.02-1.45,0-3,.03.18,2.65,1.85,0,3Z"/><path class="cls-10" d="M.95,339.18c0-.32-.05-.7,0-1l.98.5-.98.5Z"/><path class="cls-13" d="M346.95,279.18c2.99.01,6-.01,9,0-12.43,28.8,3.51,53.71,34.52,55.98,30.49,2.23,51.28-17.07,46.48-47.99,1.66.04,3.35-.07,5.01,0,21.13,1,65.43,21.87,82.46,35.04,37.17,28.75,48.75,74.05,63.52,116.53-.04,1.07-5.65,5.62-6.98,6.43-20.92,12.82-47.53,21.73-72,25-.64.09-1.35-.06-2,0-2.53-3.83-5.99-32.41-8.51-32.99-2.73-.64-2.6,3.78-2.43,5.4.85,8.32,6.08,20.24,6.94,27.6.84,7.11-4.65,18.28-4,26-47.33.33-109.61,14.87-142,52-53.45-7.4-108.33-17.44-156.56-42.01-1.04-1.99,9.01-36.6,10.56-41.99,1.9-6.63,4.16-19.45,7-25,3.73-7.28,7.05-15.53,10.52-23.98,1.63-3.97,4.85-7.52,4.48-12.01-1.68-.33-2.53.87-3.52,1.97-3.18,3.49-12.67,27.42-12.47,32.03-9.22-5.61-18.33-15.98-24.83-24.67-5.79-7.74-10.26-17.82-16.17-24.33-.41-9.98-7.64-12.91-.94-22.2,9.86-13.67,49.13-45.85,64.02-55.22,27.13-17.07,75.9-31.7,107.92-31.58Z"/><path class="cls-7" d="M316.95,130.18c-5.6-.38-35.08-12.41-36-16.51-.53-2.38,9.41-5.57,11.32-6.66,3.72-2.13,19.93-13.06,20.67-16.34.37-1.66-7.82-4.99-10.01-6.96-4.83-4.34-9.37-12.94-10.72-19.28-2.74-12.84-.06-7.67,8.27-8.2,17.79-1.11,32.52-8.48,49.03-13,41.11-11.26,83.28-4.64,118.18,19.71,4.19,2.92,15.98,14.69,18.3,15.76,1.74.8,9.36-.76,13.21-.26,5.39.7,13.24,3.87,15.68,9.1-4.2,4.74-17.9,17.88-16.98,24.08,4.14,1.39,7.48,2.3,11.08,5.04,2.5,1.9,12.93,12.55,10.89,15.44-4.9,1.42-15.81,6.88-18.35,11.15s-1.71,10.74-2.81,15.19c-7.14,29.05-26.04,56.38-53.76,68.74.26-1.02-.15-2.73.24-4.22,1.4-5.37,11.98-36.52,10.35-38.82-40.67-19.81-74.44-54.47-94.75-94.83-24.44,2.92-35.71,19.68-43.84,40.87Z"/><path class="cls-5" d="M316.95,130.18c8.12-21.19,19.39-37.95,43.84-40.87,20.31,40.36,54.08,75.02,94.75,94.83,1.64,2.3-8.94,33.46-10.35,38.82-.39,1.48.02,3.19-.24,4.22-4.93,19.17-8.28,38.83-13,58-1.19,4.84-4.47,15.08-6.52,19.98-7.71,18.43-26.99,21.9-44.71,15.75-20.48-7.11-20.23-24.16-17.77-42.73.57-4.32,2.82-10.53,2.99-13.6.06-1.12.13-2.26-.93-2.95-19.27-3.17-41.76-1.9-53.47-20.53-17.47-27.81-5.78-81.71,5.41-110.91ZM328.19,150.42c-2.11,4.19-2.09,10.11,1.76,13.28l3.3.34c4.74-1.35,5.05-13.46,1.03-14.74l-6.09,1.11ZM382.71,155.43c-7.11-7.2-12.32,13.8-3.09,14.6,4.93.43,6.64-10.99,3.09-14.6ZM350.63,168.28c-2.1.54-6.19,11.42-7.84,14.24-1.93,3.29-7.91,7.49-6.7,11.95,3.17,5.07,12.11,3.07,15.85-.79,5.92-6.09,8.35-22.46-1.32-25.4ZM409.95,203.18l-65.01,7c-.6,4.52,2,8.47,4.59,11.91,17.51,23.22,59.97,10.54,60.42-18.92Z"/><path class="cls-1" d="M362.95,278.18c-2.46,18.56-2.7,35.62,17.77,42.73,17.72,6.15,37,2.68,44.71-15.75,2.05-4.9,5.33-15.14,6.52-19.98,3.27-.06,7.26-.03,10,2-1.66-.08-3.35.04-5.01,0,4.81,30.92-15.99,50.22-46.48,47.99-31.01-2.27-46.95-27.18-34.52-55.98-2.99-.02-6,0-9,0,4.52-2.26,10.91-.44,16-1Z"/><path class="cls-2" d="M662.79,226l87.24-84.23c14.43-11.13,32.21,7.24,20.42,21.42l-97.5,93.5c-5.58,5.57-14.41,6.29-20.94,1.92-17.75-11.88-35.22-35.02-52.58-48.42-11-12.65,3.05-30.96,18.04-23.04l41.92,38.08,3.39.77Z"/><path class="cls-8" d="M506.95,470.18c.65-.06,1.36.09,2,0l6,26.99c-4.51,0-9.05.02-13.57.04-1.27,0-2.29-1.04-2.43-1.04-.65-7.72,4.84-18.89,4-26,1.32-.09,2.69.13,4,0Z"/><path class="cls-1" d="M216.95,437.18c-.2-4.61,9.3-28.54,12.47-32.03.99-1.09,1.85-2.3,3.52-1.97.37,4.49-2.85,8.04-4.48,12.01-3.46,8.46-6.79,16.7-10.52,23.98-.96-.28-.96-1.15-1-2Z"/><path class="cls-1" d="M506.95,470.18c-1.31.13-2.68-.09-4,0-.87-7.36-6.09-19.28-6.94-27.6-.17-1.61-.3-6.03,2.43-5.4,2.53.59,5.99,29.16,8.51,32.99Z"/><path class="cls-3" d="M409.95,203.18c-.45,29.46-42.9,42.14-60.42,18.92-2.6-3.44-5.19-7.39-4.59-11.91l65.01-7Z"/><path class="cls-11" d="M350.63,168.28c9.67,2.94,7.23,19.31,1.32,25.4-3.75,3.85-12.69,5.86-15.85.79-1.22-4.45,4.77-8.66,6.7-11.95,1.65-2.82,5.74-13.71,7.84-14.24Z"/><path class="cls-12" d="M328.19,150.42l6.09-1.11c4.02,1.28,3.71,13.39-1.03,14.74l-3.3-.34c-3.85-3.17-3.87-9.1-1.76-13.28Z"/><path class="cls-12" d="M382.71,155.43c3.56,3.61,1.84,15.02-3.09,14.6-9.23-.8-4.02-21.8,3.09-14.6Z"/></svg>