<?xml version="1.0" encoding="UTF-8"?><svg id="Camada_1" xmlns="http://www.w3.org/2000/svg" viewBox="0 0 1227 279.44"><defs><style>.cls-1{fill:#78b133;}.cls-2{fill:#1a212f;}.cls-3{fill:#cbfb14;}.cls-4{fill:#e9e8ea;}</style></defs><rect class="cls-1" x="14.43" y="38.25" width="297.5" height="186.85" rx="31.7" ry="31.7" transform="translate(-36.64 68.13) rotate(-21.26)"/><rect class="cls-3" x="41.44" y="78.51" width="310.42" height="186.85" rx="31.7" ry="31.7" transform="translate(-18.82 24.27) rotate(-6.74)"/><path class="cls-4" d="M408.21,204.06l47.91-145.11h52.68l49.7,145.11h-33.79l-40.15-122.65,10.34,4.17h-25.64l10.73-4.17-39.16,122.65h-32.6ZM444.59,168.08l9.94-27.04h56.85l10.14,27.04h-76.93Z"/><path class="cls-4" d="M566.24,204.06v-108.93h25.25v46.71h-1.79c0-11.13,1.42-20.41,4.27-27.83,2.85-7.42,7.19-12.99,13.02-16.7,5.83-3.71,12.92-5.57,21.27-5.57h1.39c12.72,0,22.43,4.14,29.12,12.42,6.69,8.28,10.04,20.84,10.04,37.67v62.22h-31.81v-64.01c0-5.83-1.72-10.6-5.17-14.31-3.45-3.71-8.09-5.57-13.91-5.57s-10.77,1.89-14.41,5.67c-3.65,3.78-5.47,8.72-5.47,14.81v63.41h-31.81Z"/><path class="cls-4" d="M739.58,207.84c-9.54,0-18.02-1.49-25.44-4.47-7.42-2.98-13.69-7.06-18.79-12.23-5.1-5.17-8.98-11.1-11.63-17.79-2.65-6.69-3.98-13.75-3.98-21.17v-4.57c0-7.55,1.36-14.74,4.08-21.57,2.72-6.82,6.69-12.82,11.93-17.99,5.23-5.17,11.56-9.24,18.98-12.23,7.42-2.98,15.7-4.47,24.85-4.47s17.79,1.49,25.15,4.47c7.36,2.98,13.62,7.06,18.79,12.23,5.17,5.17,9.14,11.17,11.93,17.99,2.78,6.83,4.17,14.01,4.17,21.57v4.57c0,7.42-1.33,14.48-3.98,21.17-2.65,6.69-6.53,12.62-11.63,17.79-5.1,5.17-11.37,9.24-18.79,12.23-7.42,2.98-15.97,4.47-25.64,4.47ZM739.58,181c6.23,0,11.4-1.32,15.51-3.98,4.11-2.65,7.26-6.36,9.44-11.13,2.19-4.77,3.28-10.07,3.28-15.9,0-6.23-1.13-11.69-3.38-16.4-2.26-4.7-5.47-8.45-9.64-11.23-4.17-2.78-9.24-4.17-15.21-4.17s-10.87,1.39-15.11,4.17c-4.24,2.78-7.45,6.53-9.64,11.23-2.19,4.71-3.28,10.17-3.28,16.4,0,5.83,1.06,11.13,3.18,15.9,2.12,4.77,5.3,8.48,9.54,11.13,4.24,2.65,9.34,3.98,15.31,3.98Z"/><path class="cls-4" d="M799.42,118.39v-23.26h77.92v23.26h-77.92ZM862.04,205.45c-11,0-19.88-1.36-26.64-4.08-6.76-2.71-11.7-7.29-14.81-13.72-3.12-6.43-4.67-15.14-4.67-26.14v-95.81h29.62v97.01c0,5.17,1.36,9.11,4.08,11.83,2.71,2.72,6.59,4.08,11.63,4.08h16.1v26.84h-15.31Z"/><path class="cls-4" d="M920.08,206.84c-7.82,0-14.68-1.39-20.57-4.17-5.9-2.78-10.51-6.79-13.82-12.03-3.32-5.23-4.97-11.49-4.97-18.79,0-7.95,2.05-14.48,6.16-19.58,4.11-5.1,9.87-8.88,17.29-11.33,7.42-2.45,15.97-3.68,25.64-3.68h23.26v17.69h-23.46c-5.57,0-9.84,1.36-12.82,4.08-2.98,2.72-4.47,6.4-4.47,11.03,0,4.37,1.49,7.92,4.47,10.64,2.98,2.72,7.26,4.08,12.82,4.08,3.58,0,6.79-.63,9.64-1.89,2.85-1.26,5.2-3.41,7.06-6.46,1.85-3.05,2.91-7.29,3.18-12.72l7.55,7.95c-.66,7.55-2.49,13.91-5.47,19.08-2.98,5.17-7.09,9.14-12.32,11.93-5.24,2.78-11.63,4.17-19.18,4.17ZM954.87,204.06v-32.2h-5.37v-34.99c0-5.57-1.33-9.74-3.98-12.52-2.65-2.78-6.89-4.17-12.72-4.17-2.92,0-6.76.07-11.53.2-4.77.13-9.67.33-14.71.6-5.04.27-9.61.53-13.72.79v-26.84c3.05-.26,6.63-.53,10.73-.8,4.11-.26,8.35-.46,12.72-.6,4.37-.13,8.48-.2,12.32-.2,11.13,0,20.51,1.59,28.13,4.77,7.62,3.18,13.42,7.99,17.39,14.41,3.98,6.43,5.96,14.68,5.96,24.75v66.79h-25.25Z"/><path class="cls-4" d="M1018.27,204.06l47.91-145.11h52.68l49.7,145.11h-33.79l-40.15-122.65,10.34,4.17h-25.64l10.74-4.17-39.16,122.65h-32.6ZM1054.65,168.08l9.94-27.04h56.85l10.14,27.04h-76.93Z"/><path class="cls-4" d="M1166.97,118.58v-23.46h46.32v23.46h-46.32ZM1176.51,82.41l17.89-41.55h32.6l-22.66,41.55h-27.83ZM1181.48,204.06v-108.93h31.81v108.93h-31.81Z"/><path class="cls-2" d="M267.27,98.58l1.78,15.05c17.92-.04,30.97,8.79,32.88,25.01l.86,7.31-18.41,2.18-.86-7.31c-1.02-8.62-8.36-13.09-20.05-11.71l-1.61.19c-11.69,1.38-17.81,7.29-16.98,14.3l.17,1.46c.93,7.89,7.18,9.37,26.89,11.93,22.72,2.94,34.93,8.47,36.86,24.83l.17,1.46c1.64,13.88-7.46,25.92-28.11,30.44l1.76,14.9-16.07,1.9-1.76-14.9c-20.99.41-32.7-9.62-34.68-26.42l-.83-7.01,18.41-2.18.83,7.01c1.28,10.81,8.68,14.53,21.83,12.98l1.61-.19c13.15-1.55,19.35-6.73,18.46-14.33l-.16-1.31c-.88-7.45-7.85-10.04-27.82-12.27-21.16-2.24-33.75-7.27-35.75-24.22l-.21-1.75c-1.78-15.05,8.01-26.28,26.47-30.54l-1.76-14.9,16.07-1.9Z"/></svg>