<svg xmlns="http://www.w3.org/2000/svg" width="256" height="256" viewBox="0 0 427 427" preserveAspectRatio="xMidYMid meet">
  <path d="M 79 46 L 75 88 L 80 107 L 94 127 L 126 150 L 87 135 L 54 135 L 22 148 L 20 162 L 43 192 L 61 203 L 93 206 L 116 200 L 147 327 L 145 349 L 153 363 L 171 366 L 183 376 L 200 381 L 233 380 L 254 366 L 271 364 L 280 352 L 278 330 L 310 200 L 335 206 L 365 203 L 392 183 L 406 160 L 405 150 L 398 143 L 365 134 L 339 135 L 300 150 L 333 126 L 346 107 L 351 88 L 348 48 L 339 48 L 329 74 L 314 92 L 278 106 L 258 95 L 222 99 L 169 95 L 148 106 L 112 92 L 98 76 L 86 47 Z M 184 365 L 185 364 L 188 364 L 189 363 L 193 363 L 194 362 L 198 362 L 199 361 L 227 361 L 228 362 L 232 362 L 233 363 L 237 363 L 238 364 L 240 364 L 241 365 L 241 366 L 240 367 L 239 367 L 238 368 L 237 368 L 236 369 L 235 369 L 234 370 L 232 370 L 231 371 L 228 371 L 227 372 L 198 372 L 197 371 L 194 371 L 193 370 L 191 370 L 190 369 L 189 369 L 187 367 L 186 367 Z M 154 339 L 155 338 L 155 334 L 162 313 L 169 306 L 177 302 L 180 302 L 188 299 L 195 299 L 196 298 L 229 298 L 230 299 L 237 299 L 238 300 L 241 300 L 245 302 L 251 303 L 258 307 L 262 311 L 265 316 L 268 325 L 268 328 L 270 332 L 270 337 L 272 341 L 272 348 L 269 354 L 267 356 L 262 358 L 248 357 L 247 356 L 243 356 L 238 354 L 233 354 L 232 353 L 227 353 L 226 352 L 217 352 L 216 351 L 201 352 L 200 353 L 195 353 L 194 354 L 188 354 L 187 355 L 179 356 L 178 357 L 164 358 L 159 356 L 156 353 L 154 349 Z M 246 315 L 242 315 L 240 317 L 240 319 L 236 323 L 234 323 L 233 324 L 232 324 L 231 325 L 230 325 L 230 326 L 228 328 L 228 335 L 229 336 L 229 337 L 230 338 L 231 338 L 232 339 L 237 339 L 238 338 L 239 338 L 241 336 L 242 336 L 242 335 L 245 332 L 245 331 L 246 330 L 246 329 L 247 328 L 247 325 L 248 324 L 248 318 L 247 317 L 247 316 Z M 180 315 L 178 317 L 178 319 L 177 320 L 178 321 L 178 326 L 179 327 L 179 329 L 180 330 L 180 331 L 182 333 L 182 334 L 185 337 L 186 337 L 187 338 L 188 338 L 189 339 L 194 339 L 197 336 L 197 335 L 198 334 L 198 330 L 197 329 L 197 327 L 195 325 L 194 325 L 193 324 L 192 324 L 191 323 L 190 323 L 189 322 L 188 322 L 186 320 L 186 318 L 185 317 L 185 316 L 184 316 L 183 315 Z M 397 154 L 398 157 L 395 164 L 387 175 L 378 184 L 365 193 L 352 197 L 337 197 L 321 193 L 311 189 L 309 183 L 321 172 L 330 166 L 343 160 L 351 158 L 366 158 L 371 160 L 381 161 L 383 159 L 383 155 L 381 153 L 371 150 L 354 149 L 342 151 L 334 154 L 318 163 L 308 172 L 306 171 L 306 168 L 304 165 L 305 160 L 320 152 L 322 152 L 324 150 L 340 144 L 352 142 L 359 142 L 383 147 L 392 150 Z M 29 154 L 34 150 L 43 147 L 47 147 L 55 144 L 73 142 L 74 143 L 86 144 L 92 147 L 95 147 L 121 160 L 122 164 L 120 171 L 118 172 L 105 161 L 84 151 L 72 149 L 63 149 L 45 153 L 43 155 L 43 160 L 45 161 L 50 161 L 61 158 L 75 158 L 79 160 L 83 160 L 99 168 L 106 173 L 116 183 L 116 188 L 114 190 L 95 196 L 83 197 L 82 198 L 81 197 L 68 196 L 56 190 L 47 183 L 32 166 L 32 164 L 29 160 Z M 160 108 L 169 104 L 208 108 L 257 104 L 273 115 L 278 132 L 291 150 L 302 193 L 297 229 L 273 311 L 250 280 L 240 241 L 245 208 L 261 177 L 243 200 L 236 228 L 238 260 L 251 292 L 198 289 L 176 294 L 189 252 L 189 223 L 178 191 L 167 177 L 164 178 L 182 213 L 185 247 L 171 289 L 155 309 L 151 309 L 131 236 L 155 243 L 163 268 L 159 282 L 165 278 L 165 258 L 157 239 L 130 230 L 125 185 L 135 149 Z M 284 198 L 279 198 L 278 199 L 276 199 L 270 205 L 270 207 L 269 208 L 269 210 L 268 211 L 268 217 L 270 219 L 273 219 L 274 218 L 279 218 L 280 217 L 282 217 L 285 214 L 285 212 L 286 211 L 286 207 L 287 206 L 286 205 L 286 201 L 285 200 L 285 199 Z M 142 198 L 140 200 L 140 202 L 139 203 L 139 210 L 140 211 L 140 212 L 141 213 L 141 214 L 144 217 L 145 217 L 146 218 L 148 218 L 149 219 L 156 219 L 157 218 L 157 208 L 156 207 L 156 206 L 154 204 L 154 203 L 152 201 L 151 201 L 149 199 L 147 199 L 146 198 Z M 84 70 L 85 70 L 86 71 L 86 73 L 88 75 L 91 82 L 94 85 L 94 86 L 96 88 L 96 89 L 106 99 L 107 99 L 109 101 L 112 102 L 114 104 L 116 104 L 117 105 L 118 105 L 121 107 L 123 107 L 126 109 L 128 109 L 129 110 L 131 110 L 132 111 L 134 111 L 135 112 L 138 112 L 139 113 L 141 113 L 143 115 L 141 125 L 140 126 L 138 131 L 136 133 L 136 134 L 131 139 L 130 139 L 129 138 L 128 138 L 127 137 L 116 132 L 113 129 L 112 129 L 108 126 L 107 126 L 93 112 L 93 111 L 91 109 L 91 108 L 88 103 L 88 101 L 87 100 L 87 99 L 86 98 L 86 96 L 85 95 L 85 89 L 84 88 L 84 82 L 83 81 L 83 71 Z M 341 69 L 342 70 L 342 89 L 341 90 L 341 94 L 340 95 L 340 97 L 339 98 L 339 100 L 337 103 L 337 105 L 336 106 L 336 107 L 334 109 L 334 110 L 332 112 L 332 113 L 329 116 L 329 117 L 327 119 L 326 119 L 326 120 L 324 122 L 323 122 L 319 126 L 318 126 L 315 129 L 313 129 L 311 131 L 308 132 L 306 134 L 295 139 L 289 133 L 288 130 L 286 128 L 286 127 L 285 126 L 285 123 L 284 122 L 284 120 L 283 119 L 283 117 L 282 116 L 282 115 L 284 113 L 286 113 L 287 112 L 291 112 L 292 111 L 294 111 L 295 110 L 300 109 L 303 107 L 305 107 L 310 104 L 312 104 L 314 102 L 315 102 L 319 99 L 320 99 L 328 91 L 328 90 L 331 87 L 331 86 L 335 81 L 336 78 L 338 76 L 338 74 Z" fill="currentColor" fill-rule="evenodd"/>
</svg>