<svg xmlns="http://www.w3.org/2000/svg" width="256" height="256" viewBox="0 0 428 428" preserveAspectRatio="xMidYMid meet">
  <path d="M 30 118 L 22 129 L 21 141 L 32 166 L 52 185 L 75 195 L 101 195 L 120 189 L 129 242 L 156 298 L 159 318 L 177 327 L 189 339 L 211 345 L 238 340 L 271 316 L 273 298 L 285 278 L 301 237 L 308 189 L 329 195 L 354 195 L 368 190 L 392 172 L 408 142 L 408 132 L 403 122 L 386 111 L 366 106 L 346 106 L 329 111 L 304 126 L 297 126 L 270 98 L 232 84 L 197 84 L 177 89 L 154 102 L 130 127 L 101 111 L 83 106 L 53 108 Z M 189 326 L 190 325 L 193 325 L 194 324 L 200 324 L 201 323 L 227 323 L 228 324 L 233 324 L 234 325 L 238 325 L 240 327 L 237 330 L 236 330 L 234 332 L 232 332 L 231 333 L 230 333 L 229 334 L 227 334 L 226 335 L 217 335 L 216 336 L 211 336 L 210 335 L 203 335 L 202 334 L 200 334 L 199 333 L 197 333 L 196 332 L 195 332 L 193 330 L 192 330 L 189 327 Z M 165 297 L 166 296 L 167 289 L 171 279 L 173 276 L 182 268 L 186 267 L 189 265 L 192 265 L 197 263 L 201 263 L 202 262 L 227 262 L 228 263 L 232 263 L 233 264 L 236 264 L 237 265 L 240 265 L 243 267 L 245 267 L 250 270 L 256 276 L 257 279 L 259 281 L 260 286 L 262 289 L 262 294 L 263 295 L 263 299 L 264 300 L 264 308 L 262 313 L 259 316 L 254 318 L 241 317 L 240 316 L 234 316 L 233 315 L 229 315 L 228 314 L 201 314 L 200 315 L 195 315 L 194 316 L 189 316 L 188 317 L 181 317 L 180 318 L 176 318 L 175 317 L 172 317 L 170 316 L 165 310 Z M 244 279 L 243 279 L 242 278 L 241 278 L 240 279 L 239 279 L 239 280 L 238 281 L 238 282 L 236 284 L 235 284 L 234 285 L 232 285 L 231 286 L 230 286 L 228 288 L 228 294 L 230 296 L 231 296 L 232 297 L 233 297 L 234 296 L 237 296 L 239 294 L 240 294 L 243 291 L 243 290 L 244 289 L 244 287 L 245 286 L 245 280 Z M 185 279 L 184 280 L 184 286 L 185 287 L 185 289 L 186 290 L 186 291 L 189 294 L 190 294 L 192 296 L 194 296 L 195 297 L 197 297 L 198 296 L 199 296 L 200 295 L 200 294 L 201 293 L 201 289 L 200 288 L 200 287 L 199 286 L 198 286 L 197 285 L 195 285 L 194 284 L 193 284 L 190 281 L 190 280 L 188 278 L 187 278 L 186 279 Z M 32 129 L 50 118 L 84 115 L 122 134 L 133 135 L 176 99 L 222 92 L 259 102 L 293 134 L 307 134 L 345 115 L 366 115 L 394 126 L 399 141 L 390 160 L 375 175 L 347 187 L 311 180 L 314 164 L 342 137 L 357 131 L 383 133 L 386 126 L 370 121 L 349 124 L 313 150 L 300 175 L 289 246 L 270 284 L 256 263 L 225 253 L 182 258 L 166 270 L 159 284 L 138 240 L 128 171 L 117 151 L 88 127 L 72 122 L 45 124 L 45 133 L 72 131 L 87 137 L 118 170 L 120 178 L 104 185 L 72 185 L 39 160 L 30 142 Z M 280 188 L 275 188 L 274 189 L 273 189 L 272 190 L 271 190 L 268 193 L 268 194 L 267 195 L 267 196 L 266 197 L 266 198 L 265 199 L 265 208 L 276 208 L 277 207 L 278 207 L 281 204 L 281 203 L 282 202 L 282 200 L 283 199 L 283 193 L 282 192 L 282 190 Z M 149 188 L 147 190 L 147 192 L 146 193 L 146 199 L 147 200 L 147 203 L 151 207 L 152 207 L 153 208 L 164 208 L 164 206 L 165 205 L 165 203 L 164 202 L 164 199 L 163 198 L 163 197 L 162 196 L 162 195 L 161 194 L 161 193 L 158 190 L 157 190 L 155 188 Z" fill="currentColor" fill-rule="evenodd"/>
</svg>