<svg xmlns="http://www.w3.org/2000/svg" viewBox="0 0 492 334">
  <path fill="currentColor" fill-rule="evenodd" clip-rule="evenodd" d="M12.0,44.0 L0.0,59.0 L0.0,81.0 L14.0,106.0 L36.0,128.0 L60.0,141.0 L95.0,144.0 L127.0,138.0 L129.0,167.0 L137.0,203.0 L148.0,233.0 L171.0,273.0 L174.0,298.0 L182.0,306.0 L198.0,311.0 L212.0,325.0 L232.0,333.0 L259.0,333.0 L284.0,322.0 L295.0,310.0 L310.0,305.0 L317.0,298.0 L321.0,271.0 L343.0,233.0 L354.0,203.0 L365.0,137.0 L397.0,144.0 L418.0,144.0 L434.0,140.0 L469.0,116.0 L491.0,82.0 L491.0,60.0 L480.0,45.0 L465.0,36.0 L439.0,29.0 L412.0,29.0 L384.0,38.0 L360.0,53.0 L350.0,54.0 L335.0,35.0 L315.0,18.0 L268.0,0.0 L224.0,0.0 L192.0,10.0 L161.0,30.0 L141.0,54.0 L135.0,54.0 L101.0,35.0 L78.0,29.0 L46.0,30.0 Z M40.0,46.0 L55.0,42.0 L82.0,43.0 L98.0,48.0 L128.0,66.0 L145.0,67.0 L158.0,57.0 L173.0,38.0 L201.0,21.0 L228.0,14.0 L255.0,13.0 L282.0,18.0 L305.0,28.0 L325.0,45.0 L337.0,61.0 L347.0,67.0 L367.0,65.0 L390.0,51.0 L413.0,42.0 L448.0,45.0 L449.0,48.0 L425.0,49.0 L397.0,60.0 L372.0,82.0 L361.0,97.0 L352.0,118.0 L351.0,150.0 L342.0,195.0 L332.0,224.0 L318.0,250.0 L300.0,229.0 L290.0,223.0 L268.0,216.0 L239.0,214.0 L217.0,217.0 L198.0,224.0 L185.0,235.0 L178.0,249.0 L173.0,251.0 L159.0,223.0 L148.0,191.0 L141.0,156.0 L139.0,119.0 L129.0,94.0 L108.0,70.0 L92.0,59.0 L73.0,51.0 L56.0,48.0 L41.0,49.0 Z M184.0,273.0 L185.0,272.0 L185.0,268.0 L186.0,267.0 L186.0,264.0 L187.0,263.0 L189.0,255.0 L193.0,247.0 L195.0,245.0 L195.0,244.0 L203.0,237.0 L211.0,233.0 L213.0,233.0 L217.0,231.0 L220.0,231.0 L221.0,230.0 L225.0,230.0 L226.0,229.0 L232.0,229.0 L233.0,228.0 L258.0,228.0 L259.0,229.0 L265.0,229.0 L266.0,230.0 L270.0,230.0 L271.0,231.0 L274.0,231.0 L275.0,232.0 L280.0,233.0 L288.0,237.0 L295.0,243.0 L302.0,255.0 L302.0,257.0 L303.0,258.0 L303.0,260.0 L304.0,261.0 L304.0,263.0 L306.0,267.0 L306.0,271.0 L307.0,272.0 L307.0,287.0 L305.0,291.0 L301.0,295.0 L299.0,295.0 L298.0,296.0 L283.0,296.0 L282.0,295.0 L276.0,295.0 L275.0,294.0 L270.0,294.0 L269.0,293.0 L264.0,293.0 L263.0,292.0 L254.0,292.0 L253.0,291.0 L235.0,291.0 L234.0,292.0 L228.0,292.0 L227.0,293.0 L217.0,294.0 L216.0,295.0 L211.0,295.0 L210.0,296.0 L193.0,296.0 L191.0,295.0 L186.0,290.0 L185.0,288.0 L185.0,286.0 L184.0,285.0 Z M477.0,62.0 L478.0,64.0 L478.0,75.0 L477.0,76.0 L477.0,79.0 L471.0,91.0 L466.0,97.0 L466.0,98.0 L455.0,110.0 L454.0,110.0 L444.0,119.0 L438.0,122.0 L436.0,124.0 L434.0,124.0 L429.0,127.0 L427.0,127.0 L423.0,129.0 L420.0,129.0 L419.0,130.0 L414.0,130.0 L413.0,131.0 L399.0,131.0 L398.0,130.0 L393.0,130.0 L392.0,129.0 L388.0,129.0 L387.0,128.0 L384.0,128.0 L383.0,127.0 L381.0,127.0 L380.0,126.0 L378.0,126.0 L377.0,125.0 L372.0,124.0 L367.0,121.0 L367.0,117.0 L368.0,116.0 L368.0,114.0 L370.0,111.0 L370.0,109.0 L371.0,107.0 L373.0,105.0 L376.0,99.0 L383.0,91.0 L383.0,90.0 L392.0,81.0 L393.0,81.0 L397.0,77.0 L398.0,77.0 L401.0,74.0 L407.0,71.0 L409.0,69.0 L413.0,67.0 L415.0,67.0 L418.0,65.0 L420.0,65.0 L421.0,64.0 L424.0,64.0 L425.0,63.0 L429.0,63.0 L430.0,62.0 L448.0,62.0 L449.0,63.0 L453.0,63.0 L454.0,64.0 L462.0,64.0 L464.0,62.0 L464.0,56.0 L463.0,55.0 L463.0,53.0 L464.0,52.0 L466.0,52.0 L470.0,55.0 L471.0,55.0 Z M15.0,62.0 L17.0,60.0 L17.0,59.0 L23.0,53.0 L26.0,53.0 L27.0,54.0 L27.0,62.0 L29.0,64.0 L32.0,64.0 L34.0,65.0 L35.0,64.0 L40.0,64.0 L41.0,63.0 L44.0,63.0 L45.0,62.0 L58.0,62.0 L59.0,63.0 L64.0,63.0 L65.0,64.0 L72.0,65.0 L75.0,67.0 L77.0,67.0 L87.0,72.0 L89.0,74.0 L93.0,76.0 L96.0,79.0 L97.0,79.0 L110.0,92.0 L110.0,93.0 L113.0,96.0 L113.0,97.0 L117.0,102.0 L124.0,116.0 L125.0,121.0 L124.0,122.0 L119.0,123.0 L116.0,125.0 L114.0,125.0 L108.0,128.0 L105.0,128.0 L104.0,129.0 L100.0,129.0 L99.0,130.0 L93.0,130.0 L92.0,131.0 L80.0,131.0 L79.0,130.0 L73.0,130.0 L72.0,129.0 L65.0,128.0 L57.0,124.0 L55.0,124.0 L53.0,122.0 L48.0,120.0 L41.0,114.0 L40.0,114.0 L28.0,102.0 L28.0,101.0 L24.0,97.0 L24.0,96.0 L20.0,91.0 L15.0,81.0 L15.0,79.0 L14.0,78.0 L14.0,74.0 L13.0,73.0 L13.0,69.0 L14.0,68.0 L14.0,65.0 L15.0,64.0 Z M216.0,309.0 L218.0,307.0 L224.0,307.0 L225.0,306.0 L233.0,306.0 L234.0,305.0 L258.0,305.0 L259.0,306.0 L266.0,306.0 L267.0,307.0 L271.0,307.0 L272.0,308.0 L273.0,308.0 L274.0,309.0 L274.0,311.0 L272.0,313.0 L271.0,313.0 L270.0,314.0 L269.0,314.0 L268.0,315.0 L267.0,315.0 L266.0,316.0 L265.0,316.0 L264.0,317.0 L261.0,317.0 L260.0,318.0 L256.0,318.0 L255.0,319.0 L235.0,319.0 L234.0,318.0 L231.0,318.0 L230.0,317.0 L228.0,317.0 L227.0,316.0 L225.0,316.0 L224.0,315.0 L223.0,315.0 L222.0,314.0 L221.0,314.0 L220.0,313.0 L219.0,313.0 L218.0,312.0 L217.0,312.0 L216.0,311.0 Z M331.0,133.0 L330.0,133.0 L329.0,132.0 L323.0,132.0 L322.0,133.0 L320.0,133.0 L318.0,135.0 L317.0,135.0 L312.0,140.0 L312.0,141.0 L311.0,142.0 L311.0,143.0 L310.0,144.0 L310.0,145.0 L309.0,146.0 L309.0,147.0 L308.0,148.0 L308.0,158.0 L310.0,160.0 L311.0,160.0 L312.0,161.0 L320.0,161.0 L321.0,160.0 L323.0,160.0 L324.0,159.0 L326.0,159.0 L328.0,157.0 L329.0,157.0 L330.0,156.0 L330.0,155.0 L331.0,154.0 L331.0,153.0 L332.0,152.0 L332.0,149.0 L333.0,148.0 L333.0,137.0 L332.0,136.0 L332.0,134.0 Z M161.0,133.0 L161.0,134.0 L160.0,135.0 L160.0,136.0 L159.0,137.0 L159.0,139.0 L158.0,140.0 L158.0,148.0 L159.0,149.0 L159.0,151.0 L160.0,152.0 L160.0,153.0 L161.0,154.0 L161.0,155.0 L164.0,158.0 L165.0,158.0 L166.0,159.0 L167.0,159.0 L168.0,160.0 L170.0,160.0 L171.0,161.0 L178.0,161.0 L179.0,160.0 L181.0,160.0 L183.0,158.0 L183.0,157.0 L184.0,156.0 L184.0,150.0 L183.0,149.0 L183.0,147.0 L182.0,146.0 L182.0,144.0 L180.0,142.0 L180.0,141.0 L174.0,135.0 L173.0,135.0 L172.0,134.0 L171.0,134.0 L170.0,133.0 L167.0,133.0 L166.0,132.0 L165.0,132.0 L164.0,133.0 Z M283.0,247.0 L277.0,247.0 L275.0,249.0 L275.0,251.0 L274.0,252.0 L274.0,253.0 L273.0,254.0 L272.0,254.0 L271.0,255.0 L270.0,255.0 L269.0,256.0 L267.0,256.0 L266.0,257.0 L265.0,257.0 L263.0,259.0 L262.0,259.0 L262.0,260.0 L261.0,261.0 L261.0,267.0 L262.0,268.0 L262.0,269.0 L264.0,271.0 L265.0,271.0 L266.0,272.0 L272.0,272.0 L273.0,271.0 L274.0,271.0 L275.0,270.0 L276.0,270.0 L279.0,267.0 L280.0,267.0 L280.0,266.0 L283.0,263.0 L283.0,262.0 L284.0,261.0 L284.0,260.0 L285.0,259.0 L285.0,250.0 L283.0,248.0 Z M209.0,247.0 L207.0,249.0 L207.0,250.0 L206.0,251.0 L206.0,258.0 L207.0,259.0 L207.0,261.0 L208.0,262.0 L208.0,263.0 L210.0,265.0 L210.0,266.0 L212.0,268.0 L213.0,268.0 L215.0,270.0 L216.0,270.0 L217.0,271.0 L219.0,271.0 L220.0,272.0 L224.0,272.0 L225.0,271.0 L227.0,271.0 L228.0,270.0 L228.0,269.0 L229.0,268.0 L229.0,259.0 L227.0,257.0 L226.0,257.0 L225.0,256.0 L223.0,256.0 L222.0,255.0 L220.0,255.0 L216.0,251.0 L216.0,250.0 L215.0,249.0 L215.0,248.0 L214.0,247.0 Z"/>
</svg>
