<?xml version="1.0" encoding="UTF-8"?><svg id="Camada_1" xmlns="http://www.w3.org/2000/svg" viewBox="0 0 1169.24 853.99"><defs><style>.cls-1{fill:#c4d2eb;}.cls-2{fill:#708b2c;}.cls-3{fill:#576183;}.cls-4{fill:#a1bc27;}.cls-5{fill:#222257;}.cls-6{fill:#9e4b56;}.cls-7{fill:#171b2d;}.cls-8{fill:#ceeb25;}.cls-9{fill:#cfed1f;}.cls-10{fill:#76960d;}.cls-11{fill:#fafae3;}.cls-12{fill:#b3e32d;}.cls-13{fill:#7c9928;}.cls-14{fill:#5d8e16;}.cls-15{fill:#d1ee13;}.cls-16{fill:#cd7676;}.cls-17{fill:#3e5333;}.cls-18{fill:#f9f7f5;}.cls-19{fill:#f7ac9b;}.cls-20{fill:#fafac9;}.cls-21{fill:#536533;}.cls-22{fill:#2c3643;}.cls-23{fill:#cb6c62;}.cls-24{fill:#dde7ee;}.cls-25{fill:#f9ab9e;}.cls-26{fill:#824649;}.cls-27{fill:#26265c;}.cls-28{fill:#1d2234;}.cls-29{fill:#92be39;}.cls-30{fill:#f5f7f3;}.cls-31{fill:#ba6062;}.cls-32{fill:#627d2e;}.cls-33{fill:#fcfcf3;}.cls-34{fill:#171c2e;}.cls-35{fill:#764955;}.cls-36{fill:#f4f7eb;}.cls-37{fill:#7584bf;}.cls-38{fill:#1d1f31;}.cls-39{fill:#c7e622;}.cls-40{fill:#575d8f;}.cls-41{fill:#576d37;}.cls-42{fill:#f6f7b1;}.cls-43{fill:#dcea5f;}.cls-44{fill:#709106;}.cls-45{fill:#6f9005;}.cls-46{fill:#7f322f;}.cls-47{fill:#53588b;}.cls-48{fill:#b8c0cf;}.cls-49{fill:#aed216;}.cls-50{fill:#0d1120;}.cls-51{fill:#f6f7f4;}.cls-52{fill:#1f263c;}.cls-53{fill:#c1c7cb;}.cls-54{fill:#7c9431;}.cls-55{fill:#1d1e2e;}.cls-56{fill:#fafada;}.cls-57{fill:#c6d5ec;}.cls-58{fill:#af5a5c;}.cls-59{fill:#bad91f;}.cls-60{fill:#838691;}.cls-61{fill:#a2bf13;}.cls-62{fill:#f7ad9c;}.cls-63{fill:#84a90f;}.cls-64{fill:#d8e6f1;}.cls-65{fill:#a8b7de;}.cls-66{fill:#c2c9d5;}.cls-67{fill:#934b46;}.cls-68{fill:#7a302d;}.cls-69{fill:#81312f;}.cls-70{fill:#93b128;}.cls-71{fill:#141928;}.cls-72{fill:#d2e1f1;}.cls-73{fill:#c96e71;}.cls-74{fill:#b2cd24;}.cls-75{fill:#1e2033;}.cls-76{fill:#af585b;}.cls-77{fill:#f5a096;}.cls-78{fill:#a8b7c6;}.cls-79{fill:#93b816;}.cls-80{fill:#faf8f5;}.cls-81{fill:#394742;}.cls-82{fill:#f9faf5;}.cls-83{fill:#962b2b;}.cls-84{fill:#232941;}.cls-85{fill:#deec63;}.cls-86{fill:#9ca6be;}.cls-87{fill:#d5e3ef;}.cls-88{fill:#cdeb24;}.cls-89{fill:#b55b5a;}.cls-90{fill:#b6becd;}.cls-91{fill:#acbddf;}.cls-92{fill:#98bf01;}.cls-93{fill:#803430;}.cls-94{fill:#cdee18;}.cls-95{fill:#fafaf7;}.cls-96{fill:#202438;}.cls-97{fill:#bcdb20;}.cls-98{fill:#1f2033;}.cls-99{fill:#44563f;}.cls-100{fill:#d5e3f0;}.cls-101{fill:#8ca52e;}.cls-102{fill:#b7d216;}.cls-103{fill:#9db729;}.cls-104{fill:#c0c5cb;}.cls-105{fill:#d2ed21;}.cls-106{fill:#cbec18;}.cls-107{fill:#48557d;}.cls-108{fill:#c0dc20;}.cls-109{fill:#677e34;}.cls-110{fill:#7fa712;}.cls-111{fill:#1d2235;}.cls-112{fill:#b63836;}.cls-113{fill:#6e8d09;}.cls-114{fill:#bac723;}.cls-115{fill:#3e4c31;}.cls-116{fill:#0e1322;}.cls-117{fill:#506932;}.cls-118{fill:#aac725;}.cls-119{fill:#ccec22;}.cls-120{fill:#fdfdfd;}.cls-121{fill:#181b2c;}.cls-122{fill:#cfec1d;}.cls-123{fill:#36433a;}.cls-124{fill:#9cbb12;}.cls-125{fill:#e9eff1;}.cls-126{fill:#b8bfce;}.cls-127{fill:#914647;}</style></defs><rect class="cls-60" x="1168.4" width=".83" height="853.99"/><path class="cls-52" d="M64.2,231.33c3.53,42.74,16.29,90.31,54.8,113.79,8.66-.69,87.94-27.22,94.37-22,4.53-3.56,9.74-2.2,6.69,3.82-9.66,9.7-22.2,19.93-33.47,27.73-23.33,33.44-30.94,72.91-28.87,113.28-.4,1.58,2.67,49.01-.77,48.32-8.6,1.61,8.42-20.14-17.95-18.55-6.85-.01-13.65,5.68-18.47,10.1,0,0-9.52,3.17-9.52,3.17-2.32,5.18-5.22,9.96-11.72,7.81-1.24,2.38-3.47,4.34-6.69,5.86-.05,8.1-.86,12.37-10.37,10.08-4.16,1.96-7.91,1.87-11.25-.27l-7.2,4.41c-1.82,3.32-4.87,5.1-9.15,5.36,2.09,3.17,6.04,13.97-1.24,10.51C-2.92,461.92-4.17,320.35,63.23,233.23l-3.82-.94c.26-2.85,3.78-3.76,4.78-.96Z"/><path class="cls-84" d="M269.78,121.36c2.41,1.95.89,10.84-1.91,11.95,4.32-1.53,2.01,28.18,1.91,30.16l-1.91,1.39c4.24.7,2.73,8.41,1.91,11.95l1.42,1.79c-3.42,13.92,1.35,34.53,18.83,34l2.07,1.69,4.32,14.95c9.99,17.97,12.83,35.89,1.58,54.87-3.84,6.47-11.94,16.56-19.62,16.04l-1.12,2.01c-17.47,8.14-35.07,16.27-52.78,24.37l-4.43.38c-1.59-5.68-1.84-4.29-6.69-3.82l-.31-2.22c-25.29-20.22-43.63-48.16-48.1-81.44-4.03.84-7.02.36-8.96-1.44-10.14,1.04-6.44-13.8-16.84-12.48l-1.33-1.87.84-2.05,33.23-4.58c.93-1.69,1.11-3.78.53-6.28l1.74-1.43-2.27-1.71c-6.82-29.14-43.08-23.65-65.78-22.32l-1.76-1.79c45.22-40.52,104.52-62.23,165.42-62.15Z"/><path class="cls-81" d="M531.78,194.99c15.15,1.04,24.59,15.43,38.49,20.36l-4.91,15.43c.95,11.95.64,23.84-.93,35.67.2,3.89,1.37,4.43,4.76,5.91,1.53,13.66,6.33,33.2,1.92,46.35,6.91,21.54,10.29,43.87,9.85,66.88,8.7,14.71-.61,17.52-1.17,31.93l-2.12,1.22-.81,2.28c-6.31,2.27-9.45,8.14-12.24,14.03-9.33,23.93-19.34,47.37-30.04,70.3l-3.77-.55c-6.43,1.29-15.17-1.33-20.08-5.74-6.1-3.08,2.47-13.39,6.83-15.02.78-10.98-.38-22.36-3.49-34.16,0,0-4.66-45.56-4.66-45.56-5.23-15.77-9.59-29.47-6.4-46.37-8.91-61.79-20.18-123.75-30.84-185.19-3.13-2.39-6.51-4.46-10.14-6.19l-.07-2.18c2.38-2.52,6.23-.37,9.57,1.87,19.83,9.18,43.07,15,60.23,28.72Z"/><path class="cls-22" d="M461.98,164.39c.83.35,8.39,4.55,9.5,5.33,5.6,3.94,2.92,5.48,3.99,10.35,3.78,17.2,5.26,34.3,8.73,51.51,2.38,11.81,3.23,18.95,4.57,30.81,1.01,8.9,5.41,17.41,6.6,25.91,2.85,21.59,2.87,44.25,9.59,65.08-2.19,31.75-.73,23.75,6.63,52.58,1.65,15.88,2.83,31.75,4.91,47.68,1.06,8.15,4.58,18.7,3.86,26.77-.68,7.64-3.03,4.53-5.84,7.61-.74.82-1.08,2.67-1.85,3.88-.58.93-2.01,1.57-2.45,2.41-1.16,2.24,2.43,3.69.53,4.76,0,0-1.63,1.63-1.63,1.63-4.72-.01-16.01-1.08-11.76-7.36-1.97.37-2.29-.59-.96-2.87-11.61-69.52-42.47-150.44-117.01-172.71-6.52-3.39-9.71-22.01,1.52-20.07-.51-.78-1.13-1.51-.58-2.39,40.87-6.61,50.17-61.37,55.65-95.66,6.89-7.19,9.75-17.76,13.56-26.87.33-4.44,1.61-7.87,3.82-10.29,2.31.59,6.64,1.09,8.61,1.91Z"/><path class="cls-106" d="M910.44,194.99c67.98,81.37,103.62,190.07,84.15,296.43,3.5,17.22-26.3,91.79-43.03,100.4l-2.01-2.98c.5-24.99-3.19-48.32-17.06-69.29-2.25-5.97-11.66-22.48-5.79-27.18-1.21-2.67.67-3.93,2.87-1.91.42-5.37.69-10.76.78-16.17,4.19-.28,7.83-2.19,11.54-5.42,10.01-2.33,18.95-5.91,26.83-10.72-1.82-39.25-17.68-77.31-10.76-117.46-10.64,2.62-21.13,6.06-31.47,10.32l-2.66-1.12c-5.58,4.84-15.71,7.15-22.95,5.74-3.57.88-4.24-1.54-2.02-7.27-3.7-6.98-4.32-13.75-1.87-20.31l1.1-31.4c9.46-28.09-11.12-58.24,7.46-79.91-1.06-5.39.5-7.91,4.69-11.26-.87-2.36-4.9-11.92.2-10.49Z"/><path class="cls-112" d="M299.42,89.81c2.07-1.27,6.9-3.69,8.15-4.76,17.1-26.66,56.68-26.31,84.38-16.54,7.16,2.32,16.62,7.83,23.73,8.78,16.01,2.15,30.28-10.58,45.81,1.04,22.29,17.04,6.04,55.31-15.77,65.04-2.54,2.98,6.14,1.46,6.64,1.95,3.76,16.74-1.64,39.99-14.3,52.54l-1.65-3.83c.15-14.34-.82-28.57-2.92-42.67-58.51,23.75-93.26-23.53-97.75,3.46-1.22,9.25-3.68,16.48-8.54,24.83-2.31,3.97-10.94,17.96-13.53,20.39-.77.73-11.51,1.77-11.4-1.22-4.21.7-2.16-15.47,0-15.78l-2-.31c-1.6-7.12-4.8-15.57-13.09-16.42-.52-1.19-2.25-3.15-3.23-4-3.55-22.31-6.26-58.93,15.45-72.5Z"/><path class="cls-34" d="M45.07,542.09c2.44.06,8.59,13.7,10.51,11.47,1.56-3.81-2.63-5.93-2.91-8.15-.55-4.43,4.54-3.02,6.96-4.29,1.2-.63,1.58-2.75,3.1-3.83.89-.64,7.44-4.59,7.9-4.65,2.09-.28,2.96,1.6,4.59,1.79,2.01.23,4.61-1.37,6.79-1.58,3.47-.32,7.58,3.17,8.53-3.15.33-2.21-1.11-3.73.51-6.15,1.35-2.02,5.9-2.92,6.61-4.89.26-.73-1.86-.61-2.39-1.39-2.24-3.26,2.84-4.24,3.34-3.87.91.67-.81,6.27,6.48,3.19,2.3-.97,3.02-5.73,4.72-7.07,4.99-2.74,10.03-1.89,13.73-7.06,9.01-7.28,17.38-8.07,28.86-4.13,7.13,1.32,1.45,13.29,4.55,17.94,2.78,1.23,2.7,4.45,0,5.74l.96,13.39c1.9,2.9,2.53,6.32,1.9,10.27l15.63-4.17,1.6,1.54,2.59.21c-6.87,40.83-5.3,83.86-11.19,125.05-53.93-25.36-96.37-73.74-123.35-126.22Z"/><path class="cls-59" d="M858.81,145.27c19.3,15.11,35.92,30.91,51.64,49.72-2.17,2.43,2.01,9.57,1.77,10.86-4.11,5.65-5.55,2.69-4.82,11.36-.62,2.45-5.09,6.66-6.31,10.02-5.21,14.41,2.03,33.2,1.78,47.62-2.79,17.54-3.29,35.47-3.97,53.46-4.8,10.82,1.7,13.07,1.8,21.81-.52,2.07-3.13,2.4.19,5.52,1.32,1.28.74,1.84-.96.96-4.57,4.33-13.25,5.67-19.12,3.82-2.37,3.44-12.18,4.68-15.3,1.91-4.01,5.43-15.17,2.69-10.75-6.15-7.55-16.21-13.75-32.98-18.59-50.32.1-15.98.31-31.9.65-47.76l-1.2-2.23c1.14-16.76,1.21-33.44.22-50.04,3.12-9.43,1.3-16.68-1.54-25.92-1.21-4.5.25-8.08,2.35-12.03,1.77-7.86,4.92-31.2,17.59-22.11,1.47-1.96,2.44-1.66,4.58-.5Z"/><path class="cls-121" d="M994.59,491.42l2.27-14.17c8.96,3.18,28.01,19.21,30.35,31.94,8.71,60.01-27.15,129.7-68,171.56-23.5,16.13-59.91,16.16-88.47,13.33,18.49,39.19-129.93,23.97-150.4,22-2.99-.19-12.31-.19-12.95.37-2.48,2.15-18.2,19.28-18.52,21.23,1.83,7.88,2.05,10.93-2.92,17.61,6.08.62,8.56,2.23,7.44,4.84-4.06.17-88.72-7.82-64.33-15.32,1.68-11.42,14.57-1.11,16.14-20.91,4.28-1.69,17.79-10.06,9.61-13.6-5.3-3.39,5.09-12.1,8.08-12.98,31.14,3.73,60.98,18.99,93.26,14.96,18.65,2.38,37.28,3.32,55.9,2.83,7.56-3.31,15.62-4.96,24.18-4.94,6.63-.54,12.24-2.37,16.84-5.5.02-1.76,1.61-2.71,4.78-2.87-.65-2.56.03-2.78,1.91-.96,3.09-1.41,4.12-4.81,3.82-8.61-2.11-1.96-1.96-4.11.96-4.78,1.47-3.26,4.33-3.55,7.65-3.82.96-2.67,3.13-1.79,2.87.96,5.69,3.7,11.39,5.24,17.1,4.63,3.12-5.77,9.17-3.36,14.46-4.63l1.23-1.92c12.01,1.5,24.4-2.37,36.06-5.73,3.37-6.7,9.89-18.19,6.05-26.37.49-18.9.63-37.76.41-56.56,22.6-29.92,36.73-65.94,44.23-102.58Z"/><path class="cls-71" d="M299.42,671.18c20.29-2.76,40.91-2.84,61.2,0,32.97-2.88,66.51-2.24,99.45.96,9.38-1.84,18.46-3.06,27.73,0,3.75,1.08,7.75,1.51,11.99,1.29,3.35,3.9-6.87,19.11-13.06,17.95-8.18-1.16-13.54,1.33-20.55,5.18l-7.75.85c-5.35,9.62-14.17,12.69-26.48,9.19-3.05,1.68-69.85,9.7-48.3,11.34l.87,2.01c-71.39,3.56-153.26-10.16-214.19-49.72l1.7-1.47c41.95,2.27,85.06-.74,127.39,2.43Z"/><path class="cls-7" d="M740.24,656.84l1.91,1.54c-1.83,14.06-.34,27.13,4.47,39.19l-.64,2.3c10.09,5.08,20.06,8.77,31.91,8.53l1.56,1.98c8.2.82,16.82,1.11,24.86,0,2.83-1.88,5.77-1.87,8.61,0l10.52-.96,2.32-2.02c8.26-.39,16.54-1.29,24.49-3.67l2.84.92c1.13,4.05-6.06,3.98-8.89,4.97-11.07,3.87-12.94,2.1-23.08,3.69-13.18,8.72-47.9,1.4-65.04.86-31.74,3.53-62.14-10.39-92.58-15.12-16.9,12.51-3.11,7.16-4.03,15.1-2.16,4.13-8.17,10.03-12.79,10.7-.43.64,0,3.87-.55,5.66-4.9,8.84-4.69,8.17-13.38,10.52-2.06,1.47-1.06,4.18-2.42,5.23-1.11.86-3.78.14-4.8,1.89,2.94.99,6.61,1.48,8.6,4.3-34.46-2.77-108.14-33.81-122.9-53.13,3.8-11.79.55-2.63,12.26-7.11,1.81-.48,34.12-.02,34.7-1.86.78-2.48,31.36-4.63,27.18-2.92,15.58-6.49,31.52-11.27,47.81-14.34l2.06-2.12c7.81-1.52,15.44-3.75,22.89-6.67l2.78,1.14c25.21-11.41,52.86-17.71,79.23-26.17.88.07,1.01,15.72.14,17.56Z"/><path class="cls-96" d="M693.38,760.11c-1.32-2.94-4.84-1.51-7.41-2.62-5.19-2.25,1.89-7.28,2.49-10.51s-2.23-5.78-1.62-9.11c1.14-6.16,16.54-17.49,19.65-23.67,42.39.16,85.26,8.82,127.82,2.77,7.53-.97,35.44-5.86,36.94-14.75.78-4.62-2.72-5.87-2.87-9.99,25.22,1.15,68.41,5.24,87.97-12.91,1.68-.95,3.34-1.22,2.86,1.43-69.12,68.8-171.48,85.61-265.83,79.37Z"/><path class="cls-44" d="M183.72,541.14h2.1c4.03,9.44,8.44,18.69,13.2,27.73,21.04,35.47,36.58,101.01,97.04,76.58,12.51-4.49,25.11-8.67,37.79-12.51,15.07-10.86,33.57-16.26,50.2-24.36,3.16-1.3,6.64-1.95,10.04-2.41-23.37,25.84-57,44.87-87.55,63.37-44.42,3.48-91.83,3.45-136.2.7-6.01-38.58,3.8-82.55,7.18-122.4.19-1.45,1.4-3.81-.49-4.78.81-3.07,4.39-4.14,6.69-1.91Z"/><path class="cls-13" d="M711.55,78.33c12.77,2.15,23.06,4.93,35.38,8.61,5.6,4.82,3.87,7.83.41,13.5-5.51,5.91-9.52,12.39-12.04,19.46-2.28,15.15-8.75,29.75-22.8,36.85-.95,1.8-3.25,2.15-6.91,1.06-8.06,36.07-13.65,80.56-39.95,107.95-9.91-3.07-20.68-10.14-27.4-17.94l6.03-12.16c1.09-16.25,5.81-30.99,14.17-44.22,5.13-15.75,8.86-31.81,11.18-48.17l11.64-20.02c3.48-17.48,8.4-28.92,22.57-40.19,1.47-4.36,4.04-5.93,7.72-4.72Z"/><path class="cls-117" d="M612.11,134.75c2.36,3.45-3.59,7.64-6.62,9.31,6.3,3.01,3.85,7.83-1.22,10.52-13.7,17.93-24.23,36.95-26.68,59.86l-1.82,1.59c-7.72-.79-16.33-6.02-22.95-10.52-7.04-3.38-13.97-7.19-21.04-10.52-4.31-3.07-3.25-9.42-2.29-14.15,8.56-19.84,15.64-40.59,22.06-61.09l6.16-8.83c.33-2.99.93-5.57,1.8-7.72,17.79-10,38.35-19.33,58.33-23.91,6.27.93.98,14.7.89,19,4.49,12.87,2.21,20.63-6.01,31.43l-.62,5.04Z"/><path class="cls-32" d="M661.83,74.51c6.83.68,8.26,5.16,4.29,13.44-3.83,9.78-7.11,18.87-8.06,29.47-8.59,12.97-10.02,26.88-11.29,42.23l-2.15,1.88c2.27,4.7-.77,7.15-4.56,9.86,2.79,1.17,3.67,2.66,2.65,4.48l.56,2.26c-15.45,14.88-23.63,33.59-31.94,53.43l-3.04,1.68c-11.54-2.68-23.61-9.39-32.51-17.21-.64-6.28,2.23-11.97,3.58-17.93,3.85-17,4.38-15.53,13.47-29.56,2.69-5.2,16.39-29.58,22.46-15.51,2.19-3.99,5.12-7.51,9.31-9.53-3.73-2.32-7.05-5.09-9.38-8.89l-3.11.14c-4.18-5.88,2.58-10.35,4.96-15.6,5.32-11.71.23-11.78-.23-20.3-.33-6.22,3.92-12.81,1-19.57,14.13-3.24,29.48-4.65,43.99-4.78Z"/><path class="cls-70" d="M813.87,115.62l.73,2.71c-19.9,25.52-6.44,40.72-20.81,53.71-27.35-2.18-54.97-7.53-81.28-15.3l6.7-8.12c12.68-6.89,11.37-23.74,16.07-34.61,2.58-5.96,12.46-14.62,13.43-21.09.48-3.15-4.14-3.8-1.78-5.98,25.12,7.49,44.21,15.91,66.93,28.69Z"/><path class="cls-2" d="M711.55,78.33c-5.3-1.1-3.23,2-5.29,4.75-18.02,18.26-16.55,15.31-22.93,40.18-9.78,18.52-13.49,17.75-15.05,39.46-1.77,7.66-4.54,19.3-6.91,26.55-2.21,6.75-8.67,14.8-10.55,21-2.23,7.33-2.55,18.04-4.7,25.9-1.18,4.34-5.55,8.57-6.28,13.32-9.35-2.91-26-8.16-31.56-16.26,7.8-14.31,11.77-30.57,22.16-43.39l12.27-13.99,2.26-.14c-.42,2.13,5.88-4.54,5.9-4.99-3.73-2.15-6.83-4.53-6.24-9.21,1.11-8.85,2.04-21.19,4.25-29.7,4.63-10.94,8.83-14.68,9.2-27.14,1.03-4.22,10.06-24.79,8.15-27.35-.8-1.07-3.9-.78-4.38-2.83,16.8-.15,33.2,1.05,49.72,3.82Z"/><path class="cls-118" d="M858.81,145.27c-1.9-.39-3.42,2.58-4.29,2.66-2.1.18-3.64-5.55-9.1-.26-6.17,6.76-5.1,19-9.53,26.85-.82,5.92,3.81,14.61,3.78,20.96-2.24,8.35-1.97,17.15-.9,25.86.07,12.25-1.63,24.46-1.96,36.77-1.56,16.41,4.05,36.83-7.74,50.37-2.71,10.2-6.44,10.85-15.98,8.9-3.1-.15-15.44,4.57-14.53-1.9,14.71-36.76,26.34-74.04,24.67-114.54,1.36-34.4-12.35-16.44-29.45-28.89.21-4.28,4.73-8.23,5.53-12.16.48-21.32,3.66-26.42,14.55-44.25,16.35,9.19,30.11,18.03,44.94,29.64Z"/><path class="cls-111" d="M520.31,672.14c37.38-3.04,76.51-3.85,112.83.96-74.8,24.45-169.84,46.34-248.61,46.86-3.61-.34-11.15-1.07-7.02-4.63,3.79-3.27,15.88-3.22,21.56-4.26,8.87-1.62,20.79-5.44,29.08-6.29,6.65-.68,13.92,1.96,19.76.63,9.78-4.33,3.94-11.26,17.2-10.53,19.83-12.49,24.15,4.6,34.16-19.86-1.59-1.56-10.2.56-11.47-2.88,10.78-2.59,21.74-2.66,32.51,0Z"/><path class="cls-80" d="M174.16,209.33c-3.96,1.57-8.06,3.01-12.24,3.74-29.2,3.45-58.71,11.17-88.16,9.65-1.1,3.3-4.65,3.59-7.82,2.06-4-14.77-12.82-26.84-27.26-32.28l-.31-2.29c34.65.64,127.1-29.52,135.78,19.12Z"/><path class="cls-17" d="M531.78,194.99c-22.31-11.7-47.07-19.78-68.85-31.56,33.32-16.13,64.55-41.1,96.58-60.24,3.85,8.12-4.43,13.22-7.19,19.11-4.64,19.06-11.97,34.3-18.16,53.56-3.77,5.67-4.46,12.62-2.38,19.13Z"/><path class="cls-66" d="M38.38,190.21c14.28,5.39,26,18.17,28.75,33.39,2.3.68,4.56-.67,6.63-.88,1.74,1.84,3.15,6.81,0,7.65-1.15,2.34-8.39,3.66-9.56.96-21.36,3.43-42.63,4.97-64.07,7.65-1.52-23.54,10.62-52.19,38.25-48.77Z"/><path class="cls-83" d="M299.42,89.81c-22.93,19.87-12.84,50.84-14.27,76.59-5.7,1.02-10.64,5.05-13.2,10.18l-2.17.25c-2.48-7.82-1.94-35.05-1.91-43.51.57-22.42,12.88-33.83,31.55-43.51Z"/><path class="cls-71" d="M405.56,718.99c-1.81,1.58-4.4.92-6.69.96,1.99-3.24,4.59-.96,6.69-.96Z"/><path class="cls-94" d="M278.39,300.17c26.33,25.1,56.39,34.69,91.96,23.18.67-3.49,1.89-5.8,3.67-6.93-3.34-2.28.85-5.72,1.91-1.91,71.34,16.93,107.82,98.6,120.97,164.46.87,4.52,2.79,7.5-.49,11.48-.2,5.93-13.16,14.71-18.17,15.3-14.1-43.26-20.39-90.52-42.31-131.29-.69-1.45-4.64-6.68-3.51-3.31,15.85,48.76,32.26,99.11,26.7,150.85-47.85,15.49-96.94,27.69-146.3,37.29-15.06-46.94-27.39-94.95-36.34-143.43l-2.39-1.7c-6.76-37.84-24.47-68.46-67.09-61.78-1.15.16-7.53,1.85-4.02,2.12,45.49-8.01,65.66,24.21,70.12,65.28l-1.4,2.77c10.17,28.16,11.8,59.17,18.08,88.45.57,3.37-3.1,6.61-5.65,3.35-21.32,11.58-47.22,13.77-70.47,20.49-1.94.37-4.08.04-6.02-.41-19.11-23.78-23.67-90.36-26.57-121.96-.81-18.8-1.52-40.4,5.53-57.81,23.23-28.53,60.47-39.92,91.8-54.5Z"/><path class="cls-18" d="M73.76,230.37c1.71-1.31,2.25-.76.96.96l2.11,1.51c.08,4.6.35,9.18.81,13.72,29.5-3.73,59.17-8.46,88.87-9.5,3.26,33.78,24.35,63.36,49.25,84.15,1.18,1.69-1.92.69-2.4,1.91-31.93,4.42-64.83,19.03-96.52,23.43-36.55-26.1-54.37-70.83-52.64-115.23,3.19-.35,6.26-1.43,9.56-.96Z"/><path class="cls-61" d="M207.63,534.44c-8.71,7.42-20.54,5.59-30.6,8.6-2.43.63-18.44,5.5-19.12,4.78,1.35-64.41-16.92-139.87,28.68-193.15-9.38,59.52-.76,123.75,21.04,179.77Z"/><path class="cls-19" d="M286.04,164.39c9.9-.57,14.83,10.6,16.26,18.65,0,0,0,15.78,0,15.78l10.37-.16c5.7-11.2,15.07-20.07,18.81-32.35,7.29-53.37,26.94,8.53,102.77-16.27,10.91,43.48-.51,137.57-53.54,147.26-21.57,6.04-44.25-9.4-59.38-23.67,7.21,22.2,27.21,38,50.31,40.65l2.37,2.14c-1.08,10.08-2.08,9.18-12.23,11.19-32.35,6.43-62.84-.73-83.39-27.45,15.3-8.06,23.51-22.67,24.85-39.7,1.14-14.51-4-18.23-8.61-30.57-1.01-2.71-3.68-14.11-4.26-14.86-1.12-1.47-5.05-.78-7.23-1.37-19.98-6.72-21.03-47.23,2.91-49.28Z"/><path class="cls-28" d="M137.82,223.68c13.65-1.25,8.48,10.39,18.17,14.34-25.97,3.11-51.86,7.8-77.9,10.56-4.98-.63-1.96-12.76-3.38-17.25,0,0,.66-2.01.66-2.01,20.35-2.47,40.71-4.93,61.08-7.4l1.38,1.76Z"/><path class="cls-12" d="M137.82,223.68l-63.11,7.65c-.11-.63-.27-.95-.96-.96.5-2.66-1.55-5.39,0-7.65,33.56-3.47,67.04-8.46,100.4-13.39.33,2.01.96,9-.62,9.42l-35.72,4.93Z"/><path class="cls-62" d="M510.75,499.07c6.52,1.73,13.42,3.92,20.08,5.74,3.79-.99,7.29-1.33,9.56,2.87,6.81-1.26,16.95,1.05,21.99,5.74,6.61-3.66,18.24,4.92,9.82,10.68-7.12,4.8-44.24-1.22-49.98-6.85-1.87.61-4.32-.56-7.34-3.52l13.9,15.36.13,3.46c4.13-.36,4.12,6.45,2.96,9.45s-7.2,11.09-10.61,9.67c-4.48,2.88-.9-9.08-11.59-20.54-4.07-5.27-6.59-7.1-1.72.07,8.92,9.03,11.76,18.41,8.53,28.12,1.36,1.37.96,2.18-.96,1.91-1.72,2.24-4.54,4.96-6.69,1.91-3.63,1.94-4.64-.6-3.02-7.64-5.23-14.53-21.16-31.79-2.76-3.84,3.4,4.65,2.6,14.75-3.77,14.35-12.91,9.09-5.74-27.58-31.27,3.5l-3.16.32c1.38,2.56-.18,4.18-2.87,2.87-2.24,3.82-6.01,6.6-11.34,8.34-18.01,7.49-35.59,15.79-52.74,24.93l-3.81.2c-86.34,40.25-143.24,69.68-175.99-46.09l1-2.68,3.05-3.34c20.46-13.49,40.46-28.98,62.92-38.74.81-.07,2.08-.12,2.28.42.85,5.56,12.12,45.86,6.33,47.4l-.42,2.02c-7.33,1.55-24.85,26.66-9.09,8.06,3.21-3.13,8.55-8.03,12.38-9.12l1.15-2.05,13.15-4.16,1.96,1.43c48.71-12.59,97.6-24.68,146.3-37.29.77-2.73,7.03-8.81,9.56-6.69,7.05-4.72,21.97-17.74,28.69-21.99-1.08,6.2,9.7,4.4,13.39,5.74Z"/><path class="cls-99" d="M575.77,216.03c29.88,16.56,61.9,30,89.88,49.72-.13,12.44-39.88,46.77-53.33,47.03,18.13,11.05,38.94,20.99,53.68,36.33-3.26,17.44-5.88,38.17.51,55.15-1.39,4.34-1.41,7.88-.06,10.6l-.8,1.97-5.09,2.01c-27.33-.19-56.61,2.17-82.89-.1.31-19.38,10.73-16.16,2.01-30.21-2.17-7.35-.35-16.28-1.06-23.8-.73-7.86-2.79-18.21-3.9-26.7-.68-5.2-5.46-13.52-5.63-18.35,4.09-10.67,1.15-20.83,0-31.47-.49-4.3.35-9.79-.96-14.12-.44-1.46-2.88-.81-3.91-2.3-4.07-5.91.37-14.83.12-21.86-.47-12.9-3.18-16.52,2.11-30.31,1.29-3.37,4.83-2.22-.54-5.69-4.48-2.89-11.31-3.15-13.09-8.42,7.53,3.62,15.47,6.8,22.95,10.52Z"/><path class="cls-3" d="M665.65,416.83l2.28-1.94c16.7-.91,33.38-1.02,50.06-.34,1.05,1.01,2.08,1.77,3.11,2.28,2.41-3.69,9.24,2.05,7.65,5.74l-.65,1.92-132.65.91c-10.85.96-20.62,5.58-24.96,15.95-10.69,21.15-19.8,43.58-28.1,65.48l-2.01.85c-3.16-.88-6.4-2.01-9.56-2.87,2.95.44,2.31.04,3.34-1.89,46.9-107.56,15.22-81.89,131.49-86.08Z"/><path class="cls-98" d="M380.7,297.3c0,.07,1.12-.14.96.95-9.85-3.15-3.92,13.91-5.74,16.27-.48.62-1.52-1.72-1.91,1.91-27.79-2.03-51.34-22.28-56.41-49.72,15.39,18.25,38.58,31.86,63.1,30.6Z"/><path class="cls-81" d="M497.36,493.33c-6.64,10.11-18.62,15.74-28.69,21.99-.56-3.49,6.04-10.54,9.56-9.56,5.41-4.77,13.55-9.7,18.17-15.3.58.88.74,1.86.96,2.87Z"/><path class="cls-51" d="M926.7,492.37c-.18,16.65,10.46,30.32,16.94,44.74,7.86,17.52,7.24,35.93,7.93,54.71.72,19.72,1.6,43.53,0,63.11.05,18.33-18.87,22.18-33.97,20.04l-1.41-1.87-1.91-.88v-58.22l1.91-1.14c-6.64,4.47-11.52-10.02-1.58-9.89-4.31-5.71-4.39-9.91-.23-12.59.29-11.06.14-22.16-.46-33.28l-27.03.25c-2.66.22-4.05-.72-4.17-2.82-3.21-4.39-1.65-18.03,1.73-21.47,16.23-1.09,32.22-.31,47.99,2.34,1.74-.8,3.15-1.15,4.22-1.05-7.21-10.08-14.17-20.6-14.06-33.29l-1.8-1.17c-19.97-1.22-3-11.98,5.91-7.52Z"/><path class="cls-108" d="M923.83,349.9c4.49-1.36,34.54-13.29,36.33-11.48-2.32,17.55-1.81,35.43,0,53.07,1.93,18.73,9.02,39.8,10.5,58.35.78,9.72.86,10.73-7.85,14.11-9.84,3.81-17.31,4.73-27.38,9.9-2.49,1.89-4.31,2.11-4.05-1.87,2.94-1.23,8.34-4.18,8.26-7.67-5.46-38.24-13.43-76.52-15.8-114.42Z"/><path class="cls-74" d="M923.83,349.9c5.17,2.26,1.7,6.35,1.88,9.99,3.72,31.98,10.97,64.47,14.39,96.61.87,8.06,4.14,8.86-3.36,14.83-1.54,1.23-4.41,2.04-5.26,2.87-2.77,2.7.82,12.57-1.91,16.26-.75-.2-1.86-.53-1.91-1.1-.09-1.12-.77-22.43.15-21.84.93,1.26.88.93-.15-.97l-12.16-.83-1.23-2.04-2.32-.78c-1.58-34.99-18.85-71.2-12.02-106.31,7.04-3.61,16.26-3.77,23.91-6.69Z"/><path class="cls-47" d="M927.66,466.55c.38.2,1.75-.57,1.96.59l-.05,23.31c-4.69,3.66-11.44,3.59-17.21,3.82-1.51,2.82-5.13,2.74-6.69,0-4.26.95-1.65-21.24-1.91-24.43,1.1-.74,3.29-2.48,4.31-3.35,6.55-.52,13.08-.51,19.59.05Z"/><path class="cls-52" d="M157.9,535.4c-1.9-3.66-.76-9.1-.96-13.39,1.81,3.62.9,9.14.96,13.39Z"/><path class="cls-101" d="M854.98,363.28c3.19-.17,7.22-.64,10.52-.96,0,0,1.12,3.86,1.12,3.86-5.19,25.84,1.58,51.29,8.46,75.81.4,6.37,5.65,18.74-1.93,22.65.79,1.2-.17,1.84-2.87,1.91l1.16.49c-.43,7.79.07,17.43.75,24.37,3.46,1,.4,12.27-2.87,12.43-7.58,2.98-16.09,4.41-24.22,5.59l-2.55-1.76c-5.97,1.68-11.02-22.26-6.69-24.86,1.79-7.45,2.17-16.04,1.14-25.78l1.72-3.86c-6.11-.09-9.14-1.55-10.34-5.88,2.36-4.84,2-10.1-1.08-15.79-12.84-20.73-12.52-48.01-9.62-71.09l3.38-1.36c10.16,1.65,20.45,2.64,30.75,2.43l3.16,1.79Z"/><path class="cls-114" d="M854.98,363.28c-11.73.64-25.71-.77-37.29-2.87,0,0-3.45,1.27-3.45,1.27-8.29-2.1-38.54-9.32-35.7-20.58,6.29-7.75,12.04-15.98,17.18-24.55l2.85-1.09c6.78,3.95,12.32-2.06,22.52,1.01,4.36,0,4.54-5.86,6.33-8.97,1.42-2.45,4.84-5.67,5.37-8.02,3.17-12.79.87-28.43,4.02-41.4-.2,7.34,1.72,12.26,1.98,17.7.42,8.68-2.46,17.54-.93,28.58,2.94,16.3,12.65,35.74,18.88,51.99.48,3.12-1.95,4.07-1.76,6.91Z"/><path class="cls-103" d="M880.8,360.41c3.12-.4,4.76.57,4.93,2.91-3.74,25.3,2.08,49.63,9.16,74.36.55,5.89,7.02,23-.7,25.05.47.67.81,1.75.27,2.1-1.56.27-19.81,2.69-21.31-.19,6.32-13.65-5.14-36.2-7.39-51.42-3.08-17.5-4.39-33.36-.26-50.9,4.63-.45,10.53-1.16,15.3-1.91Z"/><path class="cls-4" d="M899.93,356.59c4.37,2.24.48,6.34.06,9.13-1.4,32.28,12.17,66.63,14.29,97.96-4.9,2.5-15.42,1.96-20.08-.96,5.45-18.04-8.52-43.63-10.27-62.88-1.15-7.29-1.2-18.03-1.2-25.57,0-3.45,3.83-12.94-1.91-13.87,6.23-.98,12.95-2.43,19.12-3.82Z"/><path class="cls-64" d="M823.43,555.48c4.36-1.72,1.81,32.54,1.91,34.26-5.74,3.36-10.15,7.29-3.82,12.6,3.44-.09,5.06.74,4.86,2.48l-.07,90.58c13.57-.42,31.64,1.11,35.84-17.07l2.41-1.4c-.98-1.81-1.1-2.9.96-1.91,1.95-.42,1.95,1.49,0,5.74,2.58.81,2.62,2.02,0,2.87,1.67.63,1.35,1.9-.96,3.82-1.35,3.44.13,12.94-4.78,13.39-.26,0-1.46.7-1.91.96-8.54,2.24-17.23,3.86-26.09,4.85-6.5.98-9.97,1.07-9.43-6.52-15.83.99-44.93,7.9-46.12-15.97.09-42.81-2.67-87.69,3.23-129.62,4.85-3.07,41.65-1.62,43.99.96Z"/><path class="cls-91" d="M779.44,554.53c-1.56,42.48-1.89,86.38-1.37,128.61,1.11,23.95,29.01,15.44,44.92,15.07,2.39.42.98,6.03,1.39,6.46,2.18,2.27,28.58-4.55,33.47-2.87-9.26,6.69-23.23,6.89-34.42,7.65-14.47,1.05-29.5,2.4-43.99.96-11.08-.47-25.89-1.56-33.47-10.52-.59-1.56-.34-2.72,1.29-2.74l11.1,2.05c-5.42-4.04-7.83-10.41-8.43-16.98l.83-132.24c.36-.8,1.06-2.32,1.43-2.41,3.79.57,23.42,2.68,27.26,6.99Z"/><path class="cls-100" d="M882.71,554.53c4.11,2.53,32.28-.24,33.47.95-1.07,10.93,1.38,24.33.08,34.94-.26,2.15-2.3,1.5-2.8,2.95-2.01,5.84,4.55,5.55,2.72,11.84h-4.79c-2.46,7.3,4.79,7.12,4.79,7.65v60.24c7.19-.24,19.6.04,26.08-3.08,5.65-2.72,6.18-10.41,9.3-15.09-.76,7.22.77,18.58-7.65,21.99l-.79-.61c-3.58,3.84-24.14,6.71-27.54,4.52-1.9-1.22-2.19-6.45.6-6.79-1.23,3.1-12.36,2.97-13.87,0-1.55,3.2-8.96-.95-11.12-2.8-2.83-2.42-4.57-6.28-5.52-9.82,1.27-35.35-6.49-71.64-2.96-106.91Z"/><path class="cls-65" d="M882.71,554.53c.95,22.92,2.45,45.52,3.87,68.32,3.45,26.78-10.78,54.93,29.59,51.21v5.74c4.13-.85,9.97.36,13.73-.06,2.52.79,18.37-8.39,14-2.82-14.98,10.79-56.45,5.14-75.24,2.62-.87,1.16-1.93,1.57-3.17,1.21-.12-10.25-2.96-20.42,0-30.6,0,0-.96-19.12-.96-19.12-1.88-3.47-1.88-7.05,0-10.52l-.96-19.12-1.9-2.77c.76-14.4.58-28.77-.55-43.1.79-1,1.61-4.31,2.75-4.7,3.03.64,19.11-.37,18.82,3.71Z"/><path class="cls-37" d="M920.96,682.66c-11.08,3.47-23.83,2.68-35.38,1.91-2.61,3.3-7.37,2.19-10.52,0-2.68-1.93-8.44,1.27-9.56-.96.17-.87-.17-2.01,0-2.87.09-.45,1.69-2.27.97-3.83,17.9,5.34,36.23,1.94,54.49,5.75Z"/><path class="cls-7" d="M885.58,684.57c3.54.42,7.05.74,10.52.96-.79,10.87-16.7,5.47-21.04-.96,3.47.21,7.04-.07,10.52,0Z"/><path class="cls-96" d="M906.62,684.57c-2.25,1.68-18.75,1.69-21.04,0,6.96.14,14.08.18,21.04,0Z"/><path class="cls-7" d="M863.59,692.22c2.12.61-.61,9.22-.96,9.56-.74.72-2.71-.96-2.86-.96,1.93-2.9,2.82-5.3,3.82-8.61Z"/><path class="cls-7" d="M872.2,683.61c-3.73.58-4.99,2.82-7.65,3.82.32-1.32.67-2.33.96-3.82,2.2.15,4.52-.22,6.69,0Z"/><path class="cls-92" d="M461.98,572.69c2.8,2.49,3.05,9.14,0,11.47-5.68,31.29-67.95,64.39-94.37,84.75,0,0-6.99,2.26-6.99,2.26-20.38-.07-40.81.03-61.2,0,33.99-17.64,65.07-41.13,94.66-65.02,19.12-12.97,48.1-21.23,67.89-33.47Z"/><path class="cls-45" d="M463.89,605.2c4.5,21.45,4.53,44.22,4.1,65.85-35.6,2.76-71.63-.55-107.37.13,20.53-13.53,99.22-64.81,101.36-87.02,4.24,4.01,4.8,16.07,1.91,21.04Z"/><path class="cls-123" d="M485.89,613.81l1.35,2.02c-1.68,5.71-1.18,11.41,1.52,17.11l1.3-.35c4.03,4.88,10.24,6.29,18.64,4.24,2.98,4.62,7.03,8.49,9.78,13.38-.15,7.43,1.06,14.16,3.63,20.18l-1.79,1.76c-20.07-.01-40.17.02-60.24,0,2.01-2.1,6.45.5,6.69-3.35-.58-21.22-1.69-42.42-2.87-63.59,6.43,1.55,16.47,5.08,21.99,8.61Z"/><path class="cls-21" d="M721.11,464.64c5.97-7.95,9.57,20.64,9.6,23.79,1.22,5.58,14.94,25.19,19.13,29.24,7.5,2.99,5.66,12.85-1,14.86l.63,3.13c-11.68,30.31-4.68,86.32-6.27,119.08-.12,2.15-.77,3.15-2.97,2.1-.04-5.38.42-10.93-.47-16.24-26.06,9.06-52.44,17.04-78.9,24.85-2.19-1.42-2.94-4.46-2.27-9.11l-15.01-27.95c.64-1.05,1.4-3.27,1.56-4.49,10.95-3.35,22.18-44.86,27.22-53.49,2.64-10.21,8.05-16.14,16.23-17.8l1.18-1.58c3.59-.28,11.34-1.44,11.92-5.4l2.2-.67c-2.33-2.89-.31-3.92,2.87-3.82.18-1.53,1.36-3.23,3.54-5.1-.21-3.51.52-5.95,2.19-7.33-2.53-1.33-1.85-2.53.96-2.87,4.29-4.08,5.57-9.86,2.56-15.26l1.27-1.95c-2.87-1.42-1.88-2.5.96-2.87l-.89-1.01c7.47-11.09,6.83-17.99-1.9-20.7l-1.03-2.2c-1.92-2.78,3.51-17.88,6.69-17.21Z"/><path class="cls-115" d="M660.87,665.45c-22.31,10.33-46.56,7.81-70.24,6.65-23.43-.2-46.9.14-70.32.04.32-2.99-2.45-4.45-2.85-7.24-.75-5.23,1.54-11.42-2.46-17.57-1.42-2.19-6.61-3.33-5.21-8.66,44.2-5.97,89.33-6.93,132.58-13.61l2.25,1.18,15.8,29.61.45,9.59Z"/><path class="cls-72" d="M783.27,531.58l1.07,2.75c-1.85,5.86-2.35,12.01-2.8,18.11l-2.09,2.09c-9.07-1.01-18.06-3.08-26.77-5.73l-.84,133.27c1.04,13.87,9.53,18.13,21.87,20.67-7.86.33-15.6-1.55-23.27-3.02-1.3-.25-3.66-1.55-4.45.16-8.13-9.61-5.64-30.6-5.74-43.03,3.21-30.98-.99-66.63,1.92-98,.62-9.66,2.37-17.68,6.68-26.31,10.26-.56,20.75-1.46,31.49-2.69l2.94,1.74Z"/><path class="cls-96" d="M804.3,710.39c-.99,1.58-3.63.96-5.25.97-6.26.07-13.71.72-19.62-.97,8.19.35,16.65.01,24.86,0Z"/><path class="cls-96" d="M823.43,709.43c-2.52,1.76-7.21.94-10.52.96,2.57-1.86,7.16-.81,10.52-.96Z"/><path class="cls-16" d="M333.85,632.93c-84.04,40.48-104.29,12.96-134.83-64.07,4.36-5.28,13.26-10.86,20.08-11.47,23.75,67.04,37.62,97.25,114.75,75.54Z"/><path class="cls-38" d="M284.12,514.36c.87-.23,1.19.09.96.96-28.87,17.53-56.12,37.82-86.06,53.55-.52-.25-2.31.61-2.94-.6l-12.36-27.13c32.64-9.97,68.14-16.26,100.4-26.77Z"/><path class="cls-36" d="M712.51,156.74c30.44,5.74,61.44,10.72,91.62,17.87,11.41,2.27,18.61-.96,20.13,13.34,5.14,53.25-10.19,115.4-45.77,156.22l.27,2.6c-6.47,7.13-13.6,13.67-20.84,20l-3.34.34c-1.01,4.98-10.23,11.99-15.3,11.47-1.6,7.49-14.91,8.73-18.17.96-2.08-.07-4.33-.32-6.19-1.22-16.08-9.12-33.43-17.7-48.28-28.66-16.82-13.72-37.71-23.53-55.48-36.58,60.37-27.65,83.24-96.09,92.81-157.23.35-.25,7.26.67,8.53.89Z"/><path class="cls-95" d="M612.11,134.75c1.01-1.65,1.98-2.74,2.39-4.78,3.72,5.86,6.44,10.27,13.41,12.42,6.69,2.25-9.17.8-11.98,15.3-4.17-8.34-8.13-9.43-15.28-14.33,5.69-.53,8.7-4.1,11.47-8.62Z"/><path class="cls-82" d="M644.62,161.52c2.81,4.94,5.79,7.72,11.47,9.08-4.91,2.43-8.63,3.92-9.57,10.04-.7.54-2.99-3.9-3.81-4.78-2.22-2.37-3.77-2.94-6.69-4.3,4.44-2.89,7.88-4.26,8.6-10.04Z"/><path class="cls-10" d="M478.24,505.76c-6.02,5.43-11.35,12.73-19.12,16.26-.34-51.65-9.96-102.6-28.5-150.79,6.74-17.8,34.61,76.24,36.07,82.49,4.53,17.23,6.92,34.87,11.55,52.04Z"/><path class="cls-124" d="M312.81,559.31c-5.09,1.32-11.06,4.41-16.26,4.78-1.88,1.98-3.02,1.87-2.87-.96-1.52-12-4.37-39.62-9.56-48.77,1.29-.43,2.23-.39,3.38-.88-3.8-30.19-10.59-60.73-15.81-90.91,1.12-2.32,2.87-4.97,4.78-6.69,11.86,47.87,24.16,95.64,36.34,143.43Z"/><path class="cls-113" d="M276.47,415.87c.53,3.31-1.42,6.2-4.78,6.69-5.87-42.43-22.23-74.44-70.76-65.98.19-1.31-.45-3.68.14-4.65,1.58-2.62,25.5-1.71,29.74-.85,32.77,6.6,38.91,37.54,45.66,64.78Z"/><path class="cls-90" d="M150.05,260.3c5.19-.5,11.87-.28,5.23,5.22l-65.02,10.5c-3.59-.08-4.32-5.12-.53-6.25,20.02-1.84,40.42-7.56,60.31-9.48Z"/><path class="cls-126" d="M161.52,283.22c4.22-.45,8.18-.21,4.58,4.6l-65.23,14.22c-3.18.44-3.98-2.29-2.8-4.8,20.25-3.53,43.16-11.87,63.45-14.02Z"/><path class="cls-48" d="M179.9,305.91c.82.85-.52,5.46-2.63,5.49l-57.27,12.63c-3.69.7-4.57-4.44-1.58-5.5,7.33-.66,59.3-14.87,61.49-12.62Z"/><path class="cls-68" d="M386.2,200.98c1.06,1.28,4.93,29.3,5.05,32.78.5,14.41-19.8,13.26-22.53,8.11-4.12-7.77,14.17.14,15.68-4.47,4-3.87-11.06-43.83,1.81-36.43Z"/><path class="cls-23" d="M281.03,177c10.62-3.52,21.67,24.31,11.31,21.74-1.97-.69-3.88-16.69-10.47-15.99-2.07.22-5.53,5.38-7.85.75-1.64-3.29,4.37-6.2,7-6.5Z"/><path class="cls-93" d="M355.48,253.39c3.21-1.02,8.9,6.58,13.93,7.88,4.29,1.11,15.19-1.26,13.13,4.85-1.49,4.4-13.06,1.87-16.52.46-2.88-1.18-17.55-10.97-10.53-13.19Z"/><path class="cls-46" d="M372.02,181.53c-5.78,1-10.03-4.57-15.73-4.75-3.77-.12-14.17,6.86-13.69.69.4-5.1,11.41-6.81,15.55-6.3s17.16,4.8,13.87,10.36Z"/><path class="cls-69" d="M406.34,176.12c4.9-.32,20.38,4.15,16.01,10.32-2.49,3.51-6.06-1.78-7.85-2.78-8.38-4.7-17.68,2.29-20.45.38-6.08-4.21,9.61-7.74,12.28-7.91Z"/><path class="cls-75" d="M398.16,203.34c-6.36-5.99,2.67-17.87,8.39-10.77,5.28,6.57-2.99,15.86-8.39,10.77Z"/><path class="cls-55" d="M359.4,186.52c8.19-2.22,9.96,13.67,1.63,14.19-8.28.52-7.47-12.6-1.63-14.19Z"/><path class="cls-102" d="M688.6,497.15c-1.87,4.34-16.15,17.84-17.28,9.7-33.32,0-67.31-2.58-100.06,2.16,33.55,1.45,68.11-2.06,101.09,1.52-11.12,26.84-57.31,14.81-80.32,16.26l-1.87,1.13c-6.2-2.73-12.97,1.24-17.03,5.93l-2.14-.37c-3.59.08-4.96-4.51-.96-5.74-.29-2.21.98-4.12,3.82-5.74.8-7.98-8.66-6.05-12.96-9.98l29.23-66.12c1.35-3.03,4.84-4.96,8.07-5.07,35.65-1.22,72.09-2.14,106.83-2.09,9.54-.63,10.98,5.45,4.32,18.25-.94,1.21-18.22,42.2-20.74,40.16Z"/><path class="cls-116" d="M535.61,524.88c1.23-4.15,18.66.06,20.08,2.87-5.98,21.05-14.76,41.36-25.82,60.24l1.15,2.15c-4.81,8.35-8.23,16.92-10.25,25.72,7.96.95,16.12.66,24.49-.86l1.81,1.68c.4-2.55,1.14-2.42,1.91,0,5.67-3.55,77.68-7.66,85.9-8.6,5.13-2.48,8.76-7.39,10.88-14.73,7.33-18.98,15.22-37.63,23.67-55.95,2.14-2.32,3.54-2.45,3.86.87,4.46,2.54,9.62,4.79,14.9,6.45,2.88,1.26,3.8,7.08.4,7.89-.76,2.87-5.48,3.36-7.21,4.74-5.04,4.03-20.4,49.2-26.06,59.04-4.91,9.77-15.39,12.14-25.54,12.71-38.67,4.04-81.24,7.74-120,9.57-7.21.36-18.28,2.83-21.04-5.74-2.4-4.51-1.87-8.54-.2-13.2,6.69-19.1,14.55-37.73,23.59-55.89l3.38-2.63c1.81-4.16,1.79-10.66,5.74-9.56,5.26-5.81,12.8-9.76,7.65-19.12-2.06-5.43.72-9.73,6.69-7.65Z"/><path class="cls-50" d="M728.76,422.57c16.54,1.9-1.58,33.13-5.32,41.52l-2.33.55c-2.33,5.45-4.54,12.42-6.69,17.21,1.72,2.09.65,3.26-1.91,2.87.75,4.51-1.48,8.66-6.69,12.43,1.82,2.35,1.06,4.39-1.91,4.78,1.48,4.34-2.01,6.54-4.24,9.61-5.88-.62-10.49.74-13.83,4.08,1.6,14.24-13.99,4.93-4.87-1.26l-1.22-2.18c10.28-20.05,23.43-42.05,30.64-63.54.64-1.96,2.36-6.04.28-7.49-1.36-.94-28.79-.53-33.08-.46-26.27.47-52.82,2.65-79.24,2.04-2.74.44-5.36,1.28-6.49,4.03l-29.45,66.64c-7.07-2.14-14.8-3.73-21.99-5.74,5.1-16.42,24.87-64.49,33.9-75.58,9.29-16.4,138.75-6.5,154.47-9.52Z"/><path class="cls-58" d="M499.27,566c13.34-11.17-12.3-25.16-5.23-30.59,5.14-.6,12.38,16,13.66,19.86.37,2.71-2.57,8.35,1.14,7.87l.44,2.01c-6.85,15.06-13.65,30.37-20.38,45.94l-3,2.73c-7.9-.79-15.87-3.51-21.99-8.61-.08-10.88-2.41-21.69-1.91-32.51,5.54-5.58,14.55-4.32,21.49-8.37,6.36,2.85,11.62,3.41,15.8,1.68Z"/><path class="cls-107" d="M515.53,561.22c-8.36,19.74-26.63,50.83-26.77,71.72-14.65-14.07,13.88-49.04,17.42-67.22,1.73-3.45,6.01-2.94,9.36-4.49Z"/><path class="cls-73" d="M499.27,566c-.93,7.18-14.18-.28-15.62.21-4.13.73-13.38,7.2-18.8,3.62,32.3-33.5,19.21-2.48,34.42-3.82Z"/><path class="cls-89" d="M573.86,522.01c-.19,2.36-1.62,4.73-3.82,5.74-1.28,4.62-12.83,3.77-14.34,0-6.43-.64-14.35-2.9-20.08-2.87-5.81.66-15.99.18-13.39-7.65,16.9,1.71,34.92,10.74,51.64,4.78Z"/><path class="cls-127" d="M521.27,551.66c-1.88,2.07-3.42,4.95-4.78,7.65,3.3-17.73-13.3-24.79-13.38-35.38,6.82-.03,14.37,15.57,16.75,21.01.69,2.31-.22,5.08,1.42,6.71Z"/><path class="cls-67" d="M293.69,563.13c.49,0,1.86,1.03,2.87.96-2.7,4.45-7.47,7.11-11.04,10.48-2.89,2.73-4.59,8.7-10,7.68-2.89-2.92,13.59-19.03,18.16-19.12Z"/><path class="cls-35" d="M522.22,517.23c3.18,8.05,7.33,4.52,13.39,7.65-5.62.03-4.66,2.67-6.69,7.65-2.09-3.79-15.99-17.45-16.25-18.66s.76-1.68,1.45-2.37c1.82-.48,6.63,4.19,8.11,5.74Z"/><path class="cls-41" d="M721.11,379.54c4.42,3.72,4.32,9.02,3.89,13.91-5.26,5.93-6.55,13.73-3.89,23.38-14.64-2.01-39.68-.12-55.46,0-5.09-5.32-.61-7.26-.98-11.84-.33-4.04-3.78-10-3.8-14.46.73-12.78-.82-31.44,3.82-43.51,18.11,10.66,38.18,22.55,56.42,32.51Z"/><path class="cls-109" d="M771.79,450.3c-.31,1.77-2.17,3.06-3.82,2.87l1.21,1.69c-.91,7.83-1.16,16.09-.04,23.85,3.11.08,3.24,5.31,1.7,3.15-.55.55-.82,1.79-.7,2.49,2.78,13.27-5.42,27.33-12.96,38.01l-2.6.61c-9.13-4.22-11.47-11.05-16.44-18.46-3.7-5.54-7.3-7.74-9.1-14.81-2.27-7.85.11-20.39-7.93-25.06,2.73-6.39,11.28-24.02,12.2-29.39,1.34-7.84-.11-7.91-4.55-12.68-2.47-2.65-3.4-5.15-7.65-5.74-2.09-.88-1.6-1.61-1.95-3.29-1.95-9.28-2.1-16.33,5.77-22.53,1.63-1.94,2.17-1.56,1.91.96l25.09,3.26c-4.27-2.32-6.57-5-6.92-8.04-3.97.7-9.24-5.69-5.74-8.61,5.02-3.2,10.75-7.62,15.3-11.47,6.44-3.54,10.38,5.23,10,11.07-9.37,29.17,26.14,62.71,7.21,72.12Z"/><path class="cls-1" d="M878.89,493.33c-.94.6-.34,1.17,1.79,1.72,20.48-.79,9.11,22.53,8.05,33.74,1.93.1,48.5-2.49,43.71,6.61l-47.71-.85c-1.35,6.58-2.1,13.26-2.01,19.98l-20.08-1.91c-3.85-3.45-7.55-13.31-6.69-18.17-1.79-.09-2.34-.69-.96-1.91l.2-3.07c5.92-6.77,9.44-15.16,11.69-23.78l2.45-1.83c.47-1.88,3.45-11.67,2.87-12.43,1.86-2.71,6.31-1.24,6.69,1.91Z"/><path class="cls-24" d="M878.89,493.33l2.55-1.49c7.25.81,14.53,1.01,21.84.59l2.38,1.85c2.22-.05,4.48.11,6.69,0,.33,4.35,6.57,2.59,9.79,4.07,4.17,1.91,2.09,5.78,2.88,9.55,2.14,10.18,9.18,19.59,15.04,27.99,1.03,2.68-7.03.54-7.64-.49-9.38-7.38-33.75-4.93-45.89-3.83-1.12-1.19,7.5-25.63,2.93-32.1-1.97-2.79-6.87-1.87-9.99-3.39-.86-.42-4.47-3.28-.6-2.75Z"/><path class="cls-78" d="M914.27,463.69c5.02.51,8.83.52,13.39,2.87-7.12,1.78-14.72,1.77-21.99,1.91l-3.34,1.98c-6.64.05-28.87,1.45-32.04-3.89,5.13-4.85,14.86-2.43,21.59-2.83,6.86-2.28,15.21-.28,22.4-.04Z"/><path class="cls-5" d="M905.66,468.47v25.82c-11.16.46-22.93.72-33.47-2.87-.07-.09-1.29.24-1.66-.19-.83-4.35-2.12-19.5-.25-24.68,11.58,2.34,23.58,2.15,35.38,1.91Z"/><path class="cls-54" d="M817.69,360.41c3.87,3.42.37,6.74.33,10.18-.19,15.2.13,36.03,5.69,50.26,3.86,8.05,12.84,19.66,5.46,28.49-1.36,2.62-11.14,1.93-11.95-.96,1.63,4.17-23.53,1.89-25.38,1.91l-1.4-1.91-1.61,1.96-14.95,1.54-2.08-1.59c9.28-12.46-.61-22.32-4.79-33.93-1.73-4.81-4.65-14.52-5.49-19.36-1.7-9.82,7.04-27.58-6.92-29.9,7.07-6,18.03-16.04,23.91-22.95,11.17,8.39,25.51,13.77,39.2,16.26Z"/><path class="cls-125" d="M835.86,482.81c-.3,8.6,1.87,17.94,6.69,24.86l3.14,2.29,9.51,18.69c-.16,1.56-.41,4.52.74,5.79-.54,3.95-9.13,2.21-8.69-1.84-8.42-.81-16.34-2.69-23.76-5.63-3.65-11-6.04-22.54-7.17-34.62-7.67.95-14.76-.21-21.26-3.51-6.03.06-7.79-5.02-1.28-3.17,4.3-1.07,8.98-.68,13.39,0,.54-1.83,1.37-1.82,1.91,0l2.21-1.96c7.41.28,14.7-.4,21.87-2.04l2.7,1.13Z"/><path class="cls-40" d="M838.73,453.17c1.14,33.73,5.23,31.24-29.64,32.51l-1.46-2.58c.69-8.55.83-17.13.41-25.74.94-1.38,3.41-3.42,4.86-4.23,8.7-.58,17.31-.57,25.83.03Z"/><path class="cls-49" d="M869.33,503.85c-2.78,11.02-6.35,20.24-14.34,28.69-4.23-8.71-8.49-15.88-12.43-24.86,6.16,1.02,24.7-6.77,26.77-3.82Z"/><path class="cls-86" d="M829.17,449.34c1.85.26,9.16,2.19,9.56,3.82-9.42,2.11-19.11,1.76-28.69,1.91l-3.63,1.97c-7.89.02-34.38,1.94-38.45-3.89.34-7.15,54.15-4.74,61.2-3.82Z"/><path class="cls-30" d="M864.55,676.92c-6.61,23.85-19.52,17.49-40.16,21.04l.08-93.29c.24-1.34-1.65-1.77-2.95-2.33,5.98-3.8,5.79-5.94,1.91-11.47v-35.38c1.89-1.91,4.78-2.57,8.67-1.97l21.88-2.53c4.37-.43,5.1,3.4,5.43,6.93,1.03,38.9,1.97,80.04,5.13,119.01Z"/><path class="cls-120" d="M811,530.62c14.9-5.1,30.16,3.08,44.94,3.82,11.33,19.71,7.53,44.8,7.65,66.94,1.08,23.73,2.11,49.93,1.91,73.63-.93.35-.75,1.18-.96,1.91-6.78-9.12-2.68-24.28-3.23-34.74-.63-16.92-2.81-33.92-3.5-50.8-.25-6.08,1.46-36.08-1.84-38.37-22.93,2.2-52.84,4.32-76.53,1.52.66-7.88.94-15.35,3.82-22.95,3.05-3.11,24.23-4.01,27.73-.96Z"/><path class="cls-120" d="M823.43,590.86c8.79,2.05,4.55,14.91-4.74,10.99-4.19-2.31-2.52-11.81,4.74-10.99Z"/><path class="cls-30" d="M864.55,620.5c-1.77-5.77-.95-13-.96-19.12,1.77,5.76.95,13,.96,19.12Z"/><path class="cls-30" d="M865.5,650.15c-1.77-5.76-.95-13-.96-19.12,1.77,5.76.95,13,.96,19.12Z"/><path class="cls-57" d="M770.84,481.85c3.04,3.33,7.83,5.05,14.36,5.17,14.24,4.93,6.1,27.73,2.34,38.17,2.62,1.3,32.33-1.05,23.46,5.42-9.46-.21-18.43.33-27.73.96-5.11.35-10.73.47-15.77.96-6.03.59-14.45,4.47-18.65,0,7.49-14.13,15.89-21.64,19.64-38.21,1.43-3.65-.4-10.81,2.36-12.46Z"/><path class="cls-77" d="M713.46,525.84c-2.42,1.55-2.74,2.51-.96,2.87-.45,5.41,1.61,7.45-3.35,11.51-1.92.95-3.51,1.31-5.12,2.36l-19.7-9.22.3,1.21,18.74,8.09.52,2.31c-.97,1.85.72,2.88-3.15,4.98-2.3,1.24-9.65,4.07-12.15,2.67.19-.73.15-5.33-.11-5.63-1.93-1.75-15.15-3.39-15.19-8.71-4.33-2.48-.87-7.12,2.64-8.5-1.28-3.15.09-8.45,4.05-7.75,10.32-1.32-6.39-12.52,21.04-12.43l1.39-1.84c.56-.52,13.69-.33,14.87.89,2.85,4.76,4.23,16.62-3.82,17.21Z"/><path class="cls-25" d="M718.25,505.76c-8.18,4.64-19.46,3.04-12.43-8.61,6.61-4.62,8.84-8.76,6.69-12.43.73-1.61,1.82-2.66,1.91-2.87,15.13,2.26,10.37,15.44,3.82,23.91Z"/><path class="cls-76" d="M706.77,541.14c-1.94,1.53-1.81,1.8-2.87,3.82l-21.04-9.08-.95-4.3c2.67-2.66,20.37,9.94,24.86,9.56Z"/><path class="cls-31" d="M713.46,525.84c-.5.88-.87,1.85-.96,2.87-5.15,1.85-18.51-.54-22.88-3.42-2.97-1.95-2.47-4.37,1.1-4.05,6.56.6,15.67,4.92,22.73,4.59Z"/><path class="cls-26" d="M703.9,501.93c-.66,6.4,10.59,3,14.34,3.82-.44.84-1.08,1.92-.96,2.87-4.97,1.88-10.91.69-16.26.96.96-2.54,1.92-5.11,2.87-7.65Z"/><path class="cls-53" d="M706.51,228.62c1.14-.33,2.24-.33,3.36.03l80.61,24.62c5.44,1.68,4.13,9.53-1.68,8.47l-81.08-24.2c-4.83-1.35-6.69-7.34-1.21-8.92Z"/><path class="cls-104" d="M679.72,279.32c1.16-.35,2.35-.33,3.53-.15l73.57,39.33c5.75,3.84,1.45,10.89-4.85,7.71-20.97-11.08-41.57-22.84-62.4-34.18-2.36-1.28-11.29-4.82-11.99-6.18-1.14-2.21-.6-5.71,2.13-6.53Z"/><path class="cls-88" d="M792.74,207.52c.41,4.58,6.94,5.71,5.82,11.37-3.5,2.04-14.61-9.49-13.4-2.38.32.97,8.02,3.92,9.61,5.71,6.77,9.79-5.41,13.69-12.87,13.73-.7-.15-9.51-9-9.14-10.82.45-2.27,6.4-1.35,7.91-.51,1.92,1.06.45,5.48,6.91,4.8,1.91-6.33-9.87-5.57-10.97-11.03-2.18-10.87,8.6-10.14,16.14-10.88Z"/><path class="cls-8" d="M770.82,274.38c-3.17,4.43,6.33,5.29,4.8,11.44-5.77,1.56-9.35-6.1-13.85-5.74-2.14,3.76,3.67,4.5,6.15,6.29,5.91,4.27,7.37,10.83-.35,13.87-3.87,1.53-5.51-.17-7.58.2-.93.17-1.92,1.87-2.99,1.66s-1.34-2.94-2.02-3.74c-2.61-3.03-6.42-3.61-5.16-9.65,9.98.05,8.18,7.7,13.72,6.61,8.37-2.43-15.57-6.39-9.4-17.12,2.37-5.22,7.84-3.04,11.31-3.18.49-.02,3.88-2.63,5.38-.63Z"/><path class="cls-119" d="M737.36,340.33c-3.74,1.86-10.2-8.91-12.42-6.68-3.12,3.13,12.83,7.72,7.69,16.78-3.42,6.02-10.86,1.73-16.25,3.27-.2-4.8-8.66-9.57-4.36-14.29,5.8.1,7.21,7.91,10.73,8.4,7.62,1.08-3.3-7.09-4.5-8.9-6.31-12.43,7.7-11.68,15.37-10.57.74.4.36,2.52.97,3.7,1.37,2.66,4.12,3.66,2.79,8.3Z"/><path class="cls-105" d="M695.98,255.41c2.29-2.25,38.75,12.78,41.78,13.29,3.58,2.61,1.88,9.58-4.46,8.34-3.31-1.58-51.93-13.85-37.33-21.63Z"/><path class="cls-9" d="M761.05,206.68c2.93,2.85.39,8.15-3.89,8.12l-38.17-10.51c-5.36-2.1-4.25-8.9,1.52-8.3,6.11,3.17,37.53,7.76,40.55,10.69Z"/><path class="cls-122" d="M662.08,309.5c-6.83-21.08,32.13,10.27,38.92,11.27,4.69,3.21,0,9.51-4.77,7.69l-34.14-18.96Z"/><path class="cls-54" d="M739.28,378.58c.43,3.9,3.06,6.12,5.74,8.61-1.61,3.86-13.76,6.57-18.17,4.78-4.59-1.55-4.24-8.54-5.74-12.43,9.4,5.13,9.82,4.36,18.17-.96Z"/><path class="cls-79" d="M680.95,514.36c-6.37,8-13.7,15.01-21.99,21.04l-.59,1.93-35.48,1.02c-3.59,2.68-2.66,4.36.69,6.61l.34,2.07c-13.78,9.19-27.57,18.38-41.37,27.58-1.3-.4-3.51-2.13-4.49-3.06-8.64.55-17.29,1.58-25.8,3.09-1.07,2.39-1.78,4.91-2.11,7.56l-2.11,1.01c-.25,2.34-17.28,8.68-18.17,4.78,8.46-20.14,17.15-40.2,25.82-60.24,4.61.46,9.51,2.21,14.34,0-1.88,2.12.59,3.52.96,5.74l1.04,1.88c-10.23,29.26,32.46,12.63,19.66-6.47l.34-2.1c4.01-4.1,11.05-1.05,15.67-1.05,13.23,0,28.85.21,42.21-.83,10.15-.79,14.97-8.05,22.44-14.38-1.24-1.38-.69-1.91.96-.96,4.94-4.26,10.02-8.59,15.3-12.43-2.29,5.38-5.85,12.22-7.65,17.21Z"/><path class="cls-20" d="M673.3,509.58c-.34.29-.62.67-.96.96-34.32-.89-68.83,2.64-103.02.23l-2.16-2.13c32.41-10.26,69.15-.66,102.84-3.88,3.31-.2,3.6,2.02,3.3,4.83Z"/><path class="cls-56" d="M608.97,465.82c25.53-4.83,9.85,34.93-8.26,25.99-11.03-6.26-2.15-23.8,8.26-25.99Z"/><path class="cls-42" d="M647.96,476.12h36.34c3.58,0-.54,8.61-3.82,8.61h-34.42c-2.9,0-.78-7.62,1.91-8.61Z"/><path class="cls-11" d="M592.02,526.8c12.75,8.18-5.47,33.39-19.46,24.71-13.67-10.49,6.24-32.84,19.46-24.71Z"/><path class="cls-14" d="M680.95,514.36c-1.2,3.33-.78,5.32-.96,7.65-.07.96-2.44,2.74-2.7,4.5-.2,1.35,1.03,2.98.37,4.1-1.35,2.26-5.3.86-4.36,7.65-2.75-2.52-2.34,2.41-3.68,3.49-42.06,94.16-9.27,61.24-120.63,74.92l.5-2.04c16.62-6.46,32.9-15.99,46.22-27.84,2.43-.93,2.72-.31,3,2.16,5.7-.76,32.98-.07,37.38-2.08.26-.12,3.08-5.04.34-4.57-9.55.63-19.15,1.1-28.78,1.4-.93-.57-3.65-2.14-2.87-3.45,9.8-9.72,21.51-20.09,32.05-29.14,2.99-3.5,6.54-5.86,10.65-7.1l.93-1.95c5.75.72,8.63-1.11,8.63-5.5l1.91-1.17c-.01-.39-.98-1.14-.91-1.83,2.99-1.7,7.11-4.89,9.53-7.25,4.2-4.09,7.55-10.96,13.38-11.96Z"/><path class="cls-110" d="M647.49,544.01c-5.12,4.4-45.1,41.2-48.77,44.94-.33-.2-1.35-.95-1.43-.93-10.76,9.55-36.52,27.1-50.2,28.66-3.3-.79-.99-9.44.25-11.83,2.18-5.98,18.69-8.04,25.39-7.64,1.72-3.8,2.42-23.06,7.83-23.56,0,0,43.03-28.69,43.03-28.69,7.47-3.1,16.22-3.51,23.91-.96Z"/><path class="cls-63" d="M548.04,583.21l1.54,2.61-1.23,12.43c2.36-.07,4.16.65,5.42,2.17-5.63,2.43-6.34,10.71-6.69,16.26-38.45,5.36-30.54.93-17.21-28.69l18.17-4.78Z"/><path class="cls-6" d="M712.51,484.72c8.66,2.64-2.15,11.12-6.69,12.43,1.95-4.31,4.89-8.47,6.69-12.43Z"/><path class="cls-87" d="M793.79,484.72c.83.27.82.59,0,.96-1.07.05-3.12-.66-2.86.95,5.22-.9,8.04,2.84,13.16,3.58,4.48.65,9.01-.07,13.49.38,1.94,1.25,3.53,29.51,6.93,34.67,1.94,2.95,17.91,4.37,23.12,6.52,1.89.78,2.72,2.1-.27,1.71-12.16-1.42-24.09-2.6-36.34-2.87,1.54-6.09-25.23-.34-25.82-4.33,3.03-8.12,10.95-30.14,2.15-36.55-3.9-2.67-18.19-.17-16.5-7.89.72.26,2.73-.82,3.36-1.1,5.76,1.71,11.69,2.39,17.76,2.04l1.83,1.93Z"/><path class="cls-27" d="M810.04,455.08c-.57,10.05,1.2,20.81-.96,30.6-11.77-1.94-34.31,1.89-42.09-7.16-.31-4.69-1.48-20.67.97-25.35,13.75,2.68,28.07,2.13,42.07,1.91Z"/><path class="cls-29" d="M745.02,387.19c3.96,3.67,9.75,7.13,13.39,11.47-9.67-3.59-23.15-1.37-31.55-6.68l18.17-4.78Z"/><path class="cls-40" d="M807.17,485.68c-4.43.05-8.97-.22-13.39,0v-.96c4.25.06,9.76-.85,13.39.96Z"/><path class="cls-120" d="M839.42,582.43c7.05-2.06,9.68,8.35,3.4,10.18-7.05,2.06-9.68-8.35-3.4-10.18Z"/><path class="cls-33" d="M548.04,583.21c.39-2.27,1.54-9.69,3.5-10.36,2.17-.74,27.98-4.05,29.01-3.03.59,3.78-1.14,6.78-2.41,10.51-.68,2.93-2.99,17.84-4.24,18.71-9.28.41-18.49,1.75-27.79,1.38.88-5.51.99-11.82,1.92-17.21Z"/><path class="cls-85" d="M658.96,535.4c.23,8.84-4.57,8.34-11.47,8.61-9.58.31-19.16,1.02-28.69.96-.37-3.63-.1-6.74,3.55-8.41l36.61-1.16Z"/><path class="cls-39" d="M615.93,486.63c-2.61,2.52-5.09-3.45-6.34-3.7-2.24-.46-6.35,5.39-8,3.7-2.28-2.34,5.7-6.69,5.71-7.17-2.25-2.13-4.48-3.65-3.8-7.17,3.53-1.6,5.85,3.51,7.29,3.76,1.31.23,6.32-6.02,7.04-2.32.38,1.96-4.46,4.34-4.72,5.85-.19,1.13,4.68,5.22,2.8,7.04Z"/><path class="cls-15" d="M581.23,529.86c15.95-3.61,10.24,19.78-1.17,19.02-9.3-.62-7.94-16.95,1.17-19.02Z"/><path class="cls-43" d="M598.72,588.95c1.54-11.31,20.01-6.74,28.25-7.61,6.41-1.21,17.88-2.96,10.01,7.15-10.32,2.5-25.22.29-35.88,2.39-1.94-.14-1.99-1.7-2.38-1.93Z"/><path class="cls-97" d="M555.8,592.66c-.74-.44-4.83-8.53-1.55-8.47.96.02,3.16,4.73,3.82,4.75,1.09.02,14.6-12.09,16.73-13.85,1.15-1.2,3.85.08,3.81.96-1.34,1.57-19.45,17.94-22.82,16.62Z"/></svg>